<?xml version="1.0" encoding="utf-8"?>
<!-- Generator: Adobe Illustrator 23.0.3, SVG Export Plug-In . SVG Version: 6.00 Build 0)  -->
<svg version="1.1" id="Layer_1" xmlns="http://www.w3.org/2000/svg" xmlns:xlink="http://www.w3.org/1999/xlink" x="0px" y="0px"
	 viewBox="0 0 1200 1200" enable-background="new 0 0 1200 1200" xml:space="preserve">
<g>
	<g>
		<path fill="#FFFFFF" d="M500.464,249.133c-1.091,0.5-1.623,0.671-2.078,0.962c-13.16,8.406-22.961,20.056-31.602,32.81
			c-9.049,13.356-15.711,27.755-18.908,43.653c-0.185,0.919-0.63,1.784-0.839,2.7c-0.446,1.952,0.216,3.328,1.888,3.938
			c1.738,0.633,3.32,0.276,4.21-1.371c0.625-1.155,0.875-2.529,1.199-3.828c6.656-26.693,20.516-49.021,41.21-67.01
			c9.934-8.636,21.781-13.248,35.028-12.896c16.821,0.446,31.008,7.091,41.832,20.107c9.005,10.828,14.053,23.671,17.542,37.143
			c1.864,7.197,3.284,14.509,4.974,21.752c0.365,1.564,0.893,3.126,1.602,4.562c0.656,1.329,2.052,2.045,3.411,1.421
			c0.967-0.444,1.818-1.52,2.298-2.518c0.368-0.764,0.262-1.891,0.048-2.781c-2.678-11.172-5.07-22.43-8.241-33.463
			c-2.737-9.522-7.228-18.366-12.918-26.54c-0.303-0.435-0.51-0.936-0.75-1.384c27.053-25.922,77.897-32.043,108.893,6.566
			c-0.818,0.755-1.598,1.619-2.514,2.299c-22.723,16.858-37.665,39.235-46.671,65.81c-0.735,2.169-1.309,4.421-1.672,6.68
			c-0.371,2.313,0.779,3.98,2.627,4.397c1.855,0.419,3.466-0.604,4.211-2.9c0.709-2.183,1.155-4.449,1.848-6.638
			c6.259-19.764,17.359-36.603,31.639-51.386c6.606-6.838,14.162-12.757,22.87-16.644c20.697-9.239,40.72-7.813,59.8,4.793
			c16.104,10.64,26.183,25.614,31.535,43.888c3.343,11.416,6.263,22.957,9.257,34.472c0.501,1.927,0.466,4.006,0.572,6.021
			c0.089,1.695,0.783,2.928,2.469,3.248c1.676,0.318,3.126-0.573,3.544-2.065c0.492-1.754,0.826-3.789,0.429-5.519
			c-2.75-11.988-5.617-23.951-8.645-35.871c-1.238-4.874-0.888-6.197,3.924-7.835c6.257-2.13,12.755-2.299,19.263-1.662
			c12.049,1.179,22.718,6.017,32.414,12.977c25.587,18.368,44.561,41.993,56.289,71.349c6.114,15.304,9.533,31.258,12.221,47.443
			c2.653,15.976,3.194,32.029,2.337,48.147c-0.627,11.791-2.847,23.346-5.831,34.756c-0.166,0.636-0.544,1.217-0.946,2.093
			c-1.156,0-2.356,0.12-3.526-0.018c-22.53-2.66-43.587,2.355-63.545,12.52c-4.538,2.311-8.702,5.464-12.748,8.603
			c-5.127,3.978-8.641,9.245-10.898,15.363c-3.177,8.615-1.226,16.515,4.319,23.194c5.175,6.233,12.486,7.904,20.309,5.858
			c3.89-1.017,7.803-2.374,11.33-4.274c7.996-4.307,16.342-7.198,25.435-7.586c3.334-0.142,6.69,0.22,10.556,0.373
			c-0.498,1.552-0.692,2.573-1.134,3.471c-11.629,23.621-25.045,46.136-41.612,66.668c-2.797,3.466-6.06,6.552-9.026,9.885
			c-1.299,1.459-2.718,1.885-4.658,1.655c-14.554-1.725-24.657,4.578-29.318,18.46c-1.152,3.43-1.812,7.069-2.287,10.667
			c-0.274,2.076-0.975,3.579-2.638,4.728c-0.89,0.615-1.723,1.316-2.63,1.902c-21.53,13.903-44.354,24.99-69.526,30.424
			c-23.364,5.044-45.43,1.241-65.843-11.413c-0.338-0.209-0.631-0.491-1.317-1.032c1.154-0.457,2.059-0.88,3.002-1.18
			c22.047-7.01,42.776-16.823,62.195-29.381c2.83-1.83,5.418-4.043,8.05-6.164c0.823-0.663,1.779-1.512,2.025-2.447
			c0.269-1.022,0.159-2.582-0.476-3.279c-0.627-0.688-2.113-0.741-3.23-0.772c-0.567-0.016-1.197,0.573-1.722,0.986
			c-13.76,10.79-29.462,18.104-45.249,25.256c-9.874,4.473-19.935,8.413-30.589,10.682c-14.486,3.085-28.929,3.466-43.357-0.333
			c-9.513-2.505-16.874-7.805-21.47-16.611c-1.054-2.019-1.725-4.241-2.533-6.384c-0.619-1.641-1.023-3.382-1.8-4.939
			c-0.953-1.911-2.714-2.583-4.363-1.996c-1.632,0.581-2.556,2.203-2.001,4.345c0.846,3.265,1.965,6.461,2.998,9.676
			c0.32,0.997,0.738,1.962,1.314,3.473c-2.421,0.677-4.55,1.42-6.739,1.86c-10.728,2.16-21.498,2.159-32.287,0.448
			c-8.137-1.29-16.407-2.025-24.392-3.945c-26.294-6.322-44.518-23.026-57.447-46.097c-5.113-9.125-9.365-18.623-10.417-29.232
			c-0.181-1.825-1.148-3.047-3.099-3.124c-1.738-0.068-3.162,1.287-3.046,3.541c0.171,3.351,0.347,6.827,1.355,9.983
			c1.969,6.168,4.501,12.157,6.831,18.208c0.478,1.242,1.096,2.43,1.908,4.209c-5.543,1.715-10.848,2.545-16.084,0.863
			c-4.207-1.351-8.359-3.2-12.143-5.479c-10.468-6.306-18.867-14.886-25.86-24.865c-13.959-19.918-23.951-41.735-30.827-64.998
			c-6.559-22.19-12.522-44.533-16.131-67.431c-2.297-14.57-4.229-29.191-4.613-43.954c-0.345-13.252-0.963-26.531-0.492-39.763
			c1.209-33.971,6.672-67.263,17.767-99.498c8.527-24.774,23.936-44.157,45.386-59.198c11.799-8.273,24.685-12.713,38.707-14.445
			c11.274-1.392,21.721,1.747,31.73,6.591C496.265,245.777,497.865,247.283,500.464,249.133z M749.501,451.418
			c-0.111-0.76-0.254-1.061-0.168-1.266c0.473-1.117,0.98-2.222,1.518-3.31c6.623-13.396,12.097-27.226,14.591-42.015
			c1.662-9.855,2.889-19.798,3.932-29.741c1.645-15.683,0.088-31.092-5.329-45.959c-4.351-11.942-11.107-22.292-21.655-29.719
			c-11.062-7.788-22.984-9.723-35.74-4.501c-7.031,2.878-12.721,7.664-17.998,12.953c-8.646,8.665-15.981,18.365-22.137,28.939
			c-13.323,22.886-20.961,47.693-24.603,73.798c-2.112,15.139-1.683,30.263,1.813,45.156c3.878,16.523,12.358,29.901,27.787,38.078
			c2.127,1.127,4.4,1.98,6.841,3.064c-0.549,1.297-1.134,2.496-1.572,3.747c-1.474,4.206-3.009,8.396-4.288,12.662
			c-0.599,1.998,0.47,3.733,2.093,4.29c1.681,0.576,3.398-0.126,4.344-2.028c0.657-1.32,1.102-2.763,1.498-4.191
			c2.016-7.276,5.462-13.824,10.09-19.748c9.097-11.645,20.66-20.064,33.944-26.425c12.911-6.182,26.323-7.723,40.32-5.654
			c5.892,0.871,11.768,1.766,17.29,4.192c1.635,0.719,3.214,0.529,4.228-1.2c0.889-1.515,0.38-3.359-1.436-4.526
			c-1.122-0.721-2.412-1.229-3.686-1.656c-8.905-2.986-18.072-4.553-27.447-4.931C752.296,451.369,750.859,451.418,749.501,451.418z
			 M555.541,429.827c2.811-5.659,5.817-11.112,8.267-16.805c2.826-6.566,5.857-13.169,7.578-20.062
			c5.177-20.737,6.942-41.888,5.085-63.193c-1.146-13.146-4.577-25.818-10.563-37.687c-3.335-6.613-7.783-12.361-13.593-16.98
			c-8.108-6.445-17.192-8.874-27.402-6.407c-7.072,1.709-12.783,5.702-17.894,10.687c-9.371,9.139-17.269,19.45-23.376,30.994
			c-14.643,27.679-21.023,57.478-22.015,88.582c-0.054,1.691-0.007,3.385-0.007,5.096c-0.611-0.058-0.775-0.024-0.86-0.09
			c-0.743-0.579-1.479-1.168-2.204-1.769c-8.696-7.205-18.498-12.214-29.575-14.493c-2.592-0.533-5.382-0.497-8.033-0.234
			c-2.174,0.216-3.276,1.924-3.039,3.625c0.24,1.724,1.642,2.598,3.929,2.681c2.14,0.078,4.343,0.051,6.398,0.558
			c10.601,2.612,19.988,7.683,27.784,15.265c12.392,12.051,19.292,26.589,18.626,44.229c-0.051,1.35-0.04,2.71,0.063,4.056
			c0.136,1.776,0.957,3.166,2.831,3.47c1.954,0.317,3.123-0.914,3.573-2.591c0.414-1.541,0.431-3.192,0.576-4.799
			c0.112-1.244,0.151-2.494,0.255-4.306c10.349,9.283,21.433,13.204,34.86,8.693c-0.167,1.644-0.266,2.672-0.376,3.7
			c-1.351,12.631,2.723,23.025,13.255,30.325c9.576,6.638,20.321,9.133,31.984,7.92c4.413-0.459,8.896-0.244,13.348-0.331
			c0.938-0.018,2.067,0.316,2.77-0.093c1.056-0.615,2.287-1.626,2.547-2.688c0.205-0.835-0.698-2.403-1.551-2.928
			c-1.322-0.815-3.013-1.387-4.56-1.416c-4.727-0.09-9.51-0.269-14.181,0.31c-9.189,1.138-17.474-1.252-25.182-5.843
			c-5.948-3.543-9.966-8.824-10.987-15.818c-1.467-10.047,1.208-19.037,7.732-26.837c2.764-3.305,6.228-5.557,10.406-6.713
			c7.597-2.101,14.628-0.883,20.526,4.319c3.62,3.193,6.661,7.059,9.854,10.716c3.198,3.664,6.179,7.521,9.434,11.131
			c1.037,1.15,2.552,2.047,4.023,2.586c2.067,0.758,4.115-0.587,4.687-2.687c0.566-2.077-0.204-3.951-2.394-4.374
			c-2.129-0.411-3.316-1.717-4.471-3.191c-2.169-2.767-4.329-5.55-6.339-8.433c-5.376-7.713-11.841-14.063-20.93-17.258
			C556.177,430.668,556.034,430.367,555.541,429.827z M406.444,513.187c0.373-3.413,0.593-7.751,1.371-11.987
			c1.157-6.294,3.235-12.296,7.231-17.457c3.027-3.91,6.865-6.353,11.86-7.082c5.406-0.789,10.581,0.116,15.472,2.156
			c4.349,1.813,8.449,4.237,12.609,6.484c4.044,2.184,7.962,4.609,12.052,6.7c4.537,2.319,9.399,3.291,14.538,2.911
			c8.483-0.627,15.778-6.346,18.209-14.499c0.866-2.903,1.117-5.875-0.138-8.733c-0.866-1.973-2.589-2.818-4.21-2.336
			c-1.672,0.497-2.503,1.943-1.827,4.285c0.708,2.455,0.053,4.549-0.947,6.632c-2.419,5.037-6.737,7.186-12.064,7.614
			c-4.188,0.336-8.066-0.934-11.671-2.872c-4.643-2.497-9.162-5.228-13.717-7.887c-6.118-3.572-12.505-6.414-19.571-7.538
			c-12.388-1.97-22.508,2.756-28.801,13.61c-5.076,8.755-7.317,18.367-7.455,28.351c-0.265,19.078,5.14,36.566,15.918,52.329
			c3.686,5.391,8.075,10.168,13.421,13.995c7.527,5.388,15.82,7.542,24.956,5.61c3.693-0.781,7.287-2.021,10.952-2.95
			c3.136-0.795,6.284-1.898,9.47-2.072c9.202-0.503,7.865-0.84,11.786,6.609c0.63,1.197,1.176,2.437,1.805,3.635
			c2.653,5.056,5.66,9.91,9.829,13.838c2.127,2.004,4.622,3.785,7.248,5.048c3.478,1.673,7.204,1.6,10.29-1.102
			c3.042-2.663,3.578-6.259,2.858-10.051c-0.671-3.534-2.301-6.7-4.711-9.316c-11.081-12.03-24.767-17.634-41.102-15.651
			c-4.909,0.596-9.621,2.674-14.499,3.714c-3.93,0.838-7.98,1.606-11.969,1.569c-7.364-0.067-13.101-4.056-17.958-9.168
			C413.468,552.619,407.409,534.39,406.444,513.187z M415.541,506.863c0.284,14.552,3.743,28.329,10.232,41.339
			c0.959,1.923,2.13,3.774,3.42,5.494c5.708,7.608,12.192,6.825,15.78-1.927c2.248-5.484,2.859-11.269,2.257-17.119
			c-1-9.726-3.319-19.156-7.021-28.218c-2.001-4.899-4.35-9.643-8.046-13.505c-1.558-1.628-3.396-3.142-5.384-4.173
			c-3.482-1.805-5.762-0.857-7.755,2.501C416.154,496.09,415.432,501.374,415.541,506.863z M682.736,597.574
			c-0.635-0.933-1.123-2.295-2.088-2.913c-1.432-0.918-2.859-0.19-3.828,1.174c-0.388,0.546-0.64,1.186-0.998,1.755
			c-4.38,6.96-8.645,13.997-13.199,20.841c-3.137,4.715-6.683,9.158-10.037,13.729c-0.638,0.87-1.292,1.738-1.836,2.667
			c-1.469,2.508-1.411,4.255,0.101,5.481c1.591,1.29,3.462,0.786,5.56-1.537c0.542-0.6,1.03-1.251,1.505-1.906
			c4.282-5.899,8.749-11.676,12.774-17.745c3.648-5.502,6.846-11.305,10.165-17.02C681.588,600.837,681.996,599.384,682.736,597.574
			z M774.089,653.175c1.804,0.024,2.898-1.351,4.027-2.729c8.329-10.168,15.193-21.309,21.699-32.685
			c0.733-1.281,1.376-2.642,1.853-4.037c0.862-2.521,0.169-4.431-1.684-5.134c-1.695-0.643-2.985,0.236-4.309,2.65
			c-1.879,3.426-3.667,6.928-5.854,10.153c-5.453,8.039-11.124,15.929-16.667,23.906c-0.835,1.202-1.711,2.481-2.111,3.857
			C770.433,651.252,771.857,653.046,774.089,653.175z M418.156,290.078c0.08-2.789-2.138-5.082-5.015-5.185
			c-2.961-0.106-4.846,2.014-4.961,5.579c-0.085,2.662,2.059,5.037,4.617,5.113C415.413,295.662,418.074,292.927,418.156,290.078z
			 M718.76,506.845c0.107-2.695-1.931-5.271-4.314-5.454c-2.578-0.197-4.999,2.247-5.077,5.124
			c-0.076,2.794,1.858,5.649,3.932,5.805C715.725,512.503,718.652,509.568,718.76,506.845z M747.316,519.976
			c2.445-0.065,4.55-2.3,4.536-4.816c-0.015-2.579-2.491-5.096-4.914-4.993c-2.45,0.104-4.614,2.699-4.484,5.378
			C742.58,518.114,744.699,520.045,747.316,519.976z M767.425,485.538c-3.513-0.06-5.753,1.35-5.764,3.63
			c-0.012,2.488,2.627,4.871,5.432,4.904c2.657,0.032,4.796-1.914,4.791-4.358C771.879,487.343,769.999,485.582,767.425,485.538z
			 M871.164,390.741c0.118-2.396-2.015-4.87-4.337-5.032c-2.284-0.159-4.382,1.795-4.527,4.217
			c-0.151,2.503,1.864,4.844,4.292,4.985C868.94,395.048,871.047,393.127,871.164,390.741z M733.016,481.305
			c-0.082,2.316,1.604,4.267,3.807,4.404c2.445,0.151,4.933-1.948,5.047-4.258c0.115-2.313-1.737-4.081-4.428-4.227
			C734.82,477.081,733.11,478.659,733.016,481.305z M841.677,356.997c-2.229-0.004-3.834,1.319-3.936,3.244
			c-0.13,2.45,2.362,5.289,4.653,5.299c2.02,0.009,3.845-1.819,3.894-3.902C846.347,359.093,844.269,357.001,841.677,356.997z
			 M445.897,443.076c2.425-0.015,4.177-1.669,4.232-3.995c0.055-2.329-1.712-4.213-3.984-4.249
			c-2.378-0.037-4.221,1.961-4.183,4.536C441.994,441.606,443.57,443.091,445.897,443.076z M896.718,404.249
			c0.012-2.352-1.777-4.393-3.862-4.404c-2.098-0.012-4.176,2.261-4.251,4.649c-0.067,2.147,1.885,3.799,4.39,3.713
			C895.201,408.132,896.706,406.532,896.718,404.249z M840.222,392.998c-2.035-0.066-3.876,1.717-3.911,3.787
			c-0.039,2.274,2.07,4.558,4.233,4.585c1.97,0.025,3.886-1.815,3.972-3.813C844.606,395.451,842.361,393.067,840.222,392.998z
			 M866.291,365.706c-0.107,2.262,1.31,3.906,3.505,4.068c2.241,0.165,4.275-1.523,4.467-3.706c0.199-2.272-1.844-4.609-4.054-4.638
			C868.119,361.402,866.407,363.271,866.291,365.706z M418.601,310.487c0.014,2.214,1.632,3.846,3.765,3.796
			c2.357-0.055,4.34-2.127,4.243-4.434c-0.09-2.134-1.765-3.796-3.859-3.828C420.452,305.986,418.585,307.995,418.601,310.487z
			 M430.051,413.087c-2.475-0.014-4.059,1.301-4.082,3.39c-0.024,2.128,1.946,4.161,4.043,4.172
			c2.164,0.011,4.317-1.909,4.368-3.895C434.435,414.612,432.652,413.102,430.051,413.087z M405.123,315.067
			c0.033-2.156-1.595-4.052-3.551-4.134c-2.005-0.085-3.854,1.733-3.86,3.794c-0.006,2.152,1.976,4.473,3.825,4.48
			C403.362,319.212,405.09,317.217,405.123,315.067z M873.885,427.174c0.092-2.372-1.584-4.322-3.755-4.367
			c-2.101-0.044-3.857,1.674-3.869,3.784c-0.012,2.182,1.875,4.087,4.094,4.131C872.389,430.763,873.801,429.344,873.885,427.174z
			 M721.004,648.239c0.082-2.008-1.393-3.701-3.357-3.854c-2.257-0.175-4.07,1.584-4.124,4.001
			c-0.047,2.094,1.354,3.765,3.284,3.919C718.886,652.471,720.912,650.508,721.004,648.239z M733.882,654.692
			c-0.092,3.07,1.192,5.036,3.309,5.068c1.894,0.028,3.393-1.498,3.535-3.597c0.164-2.435-1.666-4.82-3.741-4.877
			C735.212,651.239,733.944,652.63,733.882,654.692z M441.769,277.249c0-2.147-1.807-3.988-3.8-3.871
			c-1.758,0.103-3.007,1.627-2.995,3.653c0.012,2.091,1.495,3.846,3.304,3.908C440.128,281.004,441.769,279.269,441.769,277.249z
			 M422.51,439.813c2.076,0.026,3.527-1.201,3.561-3.01c0.034-1.836-1.723-3.581-3.637-3.614c-1.98-0.033-3.776,1.586-3.796,3.423
			C418.616,438.5,420.17,439.784,422.51,439.813z M539.634,672.257c1.797-0.066,3.128-1.312,3.173-2.971
			c0.05-1.836-1.638-3.375-3.728-3.398c-1.944-0.021-3.45,1.391-3.384,3.172C535.762,670.855,537.582,672.332,539.634,672.257z
			 M428.679,628.702c0.041,1.953,1.362,3.469,3.086,3.541c1.923,0.081,3.432-1.611,3.288-3.688c-0.13-1.879-1.611-3.38-3.311-3.356
			C429.99,625.223,428.639,626.769,428.679,628.702z M446.131,625.695c1.679-0.027,2.951-1.359,3.011-3.153
			c0.067-1.99-1.549-3.697-3.477-3.672c-1.669,0.021-3.076,1.449-3.063,3.107C442.617,623.914,444.334,625.724,446.131,625.695z
			 M688.348,584.161c1.683-0.068,2.894-1.463,2.834-3.266c-0.069-2.088-1.674-3.767-3.499-3.663c-1.67,0.096-2.87,1.474-2.859,3.285
			C684.835,582.556,686.462,584.237,688.348,584.161z M721.222,676.627c1.832,0.028,3.6-1.831,3.545-3.729
			c-0.05-1.741-1.433-3.101-3.125-3.074c-1.698,0.028-3.141,1.591-3.253,3.522C718.284,675.136,719.55,676.601,721.222,676.627z
			 M450.805,415.814c-1.666,0.047-2.954,1.445-2.97,3.226c-0.018,1.97,1.375,3.499,3.176,3.488c1.794-0.012,3.311-1.609,3.274-3.447
			C454.249,417.306,452.605,415.763,450.805,415.814z M558.181,689.427c1.798-0.092,3.324-1.763,3.21-3.515
			c-0.109-1.681-1.672-3.005-3.318-2.811c-1.601,0.188-2.985,1.718-3.004,3.318C555.048,688.132,556.478,689.514,558.181,689.427z
			 M546.929,689.658c-0.113-1.633-1.562-2.845-3.343-2.796c-1.793,0.049-3.127,1.341-3.112,3.016c0.016,1.79,1.674,3.21,3.536,3.027
			C545.722,692.737,547.041,691.271,546.929,689.658z M418.644,407.537c-0.105-1.663-1.653-2.935-3.316-2.725
			c-1.551,0.195-2.611,1.492-2.521,3.085c0.097,1.731,1.544,2.927,3.277,2.711C417.604,410.418,418.74,409.055,418.644,407.537z
			 M445.67,646.484c1.474,0.041,2.854-1.185,3-2.665c0.164-1.654-1.157-3.137-2.843-3.193c-1.581-0.052-2.831,1.056-2.965,2.627
			C442.718,644.95,444.011,646.438,445.67,646.484z"/>
		<path fill="#FFFFFF" d="M708.115,909.488c0.656-0.473,0.849-0.692,1.09-0.775c14.883-5.142,22.62-16.884,28.222-30.581
			c0.404-0.989,0.675-2.07,0.787-3.132c0.172-1.633-0.474-2.966-2.102-3.53c-1.631-0.565-2.963,0.089-3.833,1.479
			c-0.713,1.14-1.175,2.432-1.828,3.613c-2.485,4.492-4.808,9.088-7.547,13.421c-5.629,8.904-20.242,17.118-35.109,12.085
			c-11.182-3.786-20.565-10.144-27.938-19.402c-0.42-0.527-0.8-1.09-1.147-1.668c-0.127-0.212-0.103-0.514-0.24-1.313
			c1.648-0.237,3.29-0.511,4.942-0.704c3.751-0.436,7.545-0.622,11.255-1.283c12.505-2.227,19.75-11.234,21.228-23.884
			c0.42-3.598,0.25-7.31-0.044-10.939c-0.826-10.221-13.06-19.855-24.671-17.594c-5.437,1.059-10.929,1.847-16.407,2.683
			c-1.157,0.176-2.364,0.026-3.734,0.026c0-0.711-0.109-1.246,0.016-1.72c3.605-13.722,10.885-24.975,22.601-33.139
			c10.139-7.064,21.166-8.039,32.46-3.551c12.341,4.904,21.31,13.721,26.85,25.777c1.437,3.127,1.845,6.73,2.682,10.125
			c0.192,0.781,0.14,1.619,0.305,2.409c0.307,1.465,1.174,2.458,2.725,2.584c1.75,0.143,3.031-0.857,3.276-2.418
			c0.308-1.964,0.327-4.053,0.023-6.018c-0.859-5.538-2.865-10.702-5.755-15.505c-5.653-9.395-13.417-16.555-23.079-21.689
			c-1.176-0.625-2.363-1.23-4.125-2.146c1.362-1.308,2.386-2.477,3.59-3.416c5.522-4.31,11.742-7.188,18.538-8.855
			c10.389-2.547,20.853-3.048,31.393-1.104c6.513,1.201,12.286,4.183,17.659,7.892c1.611,1.112,2.826,2.885,4.016,4.507
			c7.449,10.158,12.722,21.461,16.087,33.502c3.636,13.01,6.456,26.249,9.592,39.397c0.248,1.038,0.561,2.297,0.203,3.2
			c-1.488,3.765-0.423,7.45-0.1,11.198c2.026,23.537-1.223,46.27-11.719,67.551c-20.772,42.115-54.464,67.684-100.69,75.677
			c-31.169,5.389-60.538-0.73-87.53-17.587c-2.955-1.846-4.195-3.934-4.331-7.469c-0.528-13.647,0.693-26.832,5.595-39.853
			c7.698-20.45,21.931-32.096,43.27-35.891c13.571-2.414,26.845-2.113,40.164,1.551c17.47,4.806,34.09,11.448,49.346,21.324
			c1.006,0.651,2.109,1.254,3.252,1.566c1.435,0.392,2.906-0.111,3.314-1.579c0.278-1,0.083-2.481-0.516-3.291
			c-0.85-1.148-2.205-1.973-3.452-2.768c-11.095-7.067-22.459-13.599-35.14-17.486C710.54,910.454,709.558,910.027,708.115,909.488z
			"/>
		<path fill="#FFFFFF" d="M933.58,702.241c-1.402-4.811,0.439-8.211,3.79-10.94c4.307-3.507,9.402-5.618,14.831-6.109
			c20.923-1.891,39.35,3.893,54.497,18.816c5.041,4.967,8.272,11.045,9.45,18.062c0.928,5.529,0.608,10.819-4.379,15.139
			c-1.055-0.803-2.023-1.702-3.135-2.35c-1.854-1.08-3.73-2.197-5.732-2.926c-1.666-0.607-3.235,0.06-4.071,1.765
			c-0.722,1.471-0.174,3.22,1.713,3.982c6.131,2.478,8.833,7.657,11.03,13.322c2.784,7.177,3.842,14.617,3.496,22.288
			c-0.257,5.694-0.04,11.357,1.249,16.945c1.308,5.672,3.981,10.589,7.908,14.875c9.059,9.891,20.547,15.157,33.469,17.77
			c3.71,0.75,7.488,1.361,11.054,2.569c3.286,1.114,6.567,2.591,9.433,4.525c8.897,6.004,8.342,17.878,2.149,24.115
			c-6.12,6.164-13.705,9.023-22.158,9.789c-5.863,0.532-11.61-0.342-17.189-2.23c-11.827-4.001-22.349-10.233-31.648-18.549
			c-4.192-3.749-7.381-8.262-9.987-13.206c-1.775-3.367-1.711-3.346,1.328-5.506c1.758-1.25,3.523-2.542,5.043-4.058
			c0.907-0.906,1.794-2.257,1.861-3.454c0.062-1.109-0.726-2.554-1.596-3.356c-1.147-1.056-2.626-0.536-3.596,0.595
			c-5.313,6.195-12.351,8.937-20.143,10.247c-3.158,0.531-4.484,1.79-4.636,5.626c-0.203,5.12-0.272,10.309,0.325,15.383
			c1.222,10.389,5.264,19.815,10.99,28.53c1.263,1.922,2.511,3.86,3.871,5.713c4.117,5.609,5.536,11.895,5.15,18.769
			c-0.716,12.756-11.516,20.269-23.617,16.147c-7.635-2.601-13.998-7.121-18.482-13.909c-5.912-8.948-9.518-18.769-10.601-29.489
			c-0.968-9.584-1.438-19.166,0.092-28.728c0.555-3.466,1.43-6.881,2.146-10.321c0.358-1.72,0.846-3.433,0.996-5.173
			c0.262-3.03-1.036-4.526-4.047-4.964c-0.801-0.116-1.617-0.16-2.428-0.185c-6.427-0.198-12.629-1.415-18.479-4.151
			c-2.551-1.193-4.642-1.091-7.086,0.764c-4.391,3.333-8.043,7.22-10.934,11.861c-7.006,11.249-10.744,23.522-11.83,36.717
			c-0.453,5.505-1.224,11.04-2.506,16.405c-1.656,6.927-5.268,9.218-12.457,8.912c-15.744-0.671-25.805-10.615-26.784-26.366
			c-0.8-12.872,3.555-24.207,10.323-34.794c5.539-8.663,11.265-17.206,16.873-25.826c3.866-5.943,6.637-12.371,8.52-19.214
			c1.841-6.691,0.521-12.748-4.014-17.799c-2.855-3.179-6.202-6.075-9.777-8.411c-5.653-3.694-11.663-6.847-17.558-10.165
			c-7.701-4.333-15.001-9.177-21.05-15.724c-8.351-9.039-13.369-19.633-14.721-31.863c-0.747-6.76,0.575-13.265,3.814-19.226
			c3.702-6.812,9.515-9.975,17.394-9.569c7.624,0.393,12.712,4.039,15.471,11.048c0.94,2.389,1.625,4.879,2.575,7.264
			c1.75,4.392,3.384,8.851,5.468,13.085c5.185,10.538,13.898,15.904,25.532,16.6c7.535,0.451,14.814-0.745,21.858-3.516
			c5.788-2.277,11.612-4.467,17.47-6.556c6.776-2.417,13.79-2.597,20.843-1.702c5.239,0.665,9.776,3.014,13.896,6.249
			c2.621,2.058,4.344,2.243,5.643,0.704c1.394-1.651,0.884-3.738-1.704-5.875c-5.438-4.491-11.588-7.538-18.679-8.172
			c-3.744-0.335-7.533-0.159-11.302-0.2C937.091,702.226,935.376,702.241,933.58,702.241z M946.068,768.096
			c0.737-0.36,2.405-0.773,3.525-1.791c4.629-4.203,6.572-9.792,7.12-15.811c0.29-3.188-2.308-4.816-5.085-3.228
			c-5.279,3.018-9.228,7.375-11.302,13.182c-0.382,1.069-0.285,2.426-0.048,3.575C940.765,766.395,942.844,767.978,946.068,768.096z
			 M979.745,765.185c-0.066-0.007-0.131-0.015-0.197-0.022c0-1.883,0.065-3.769-0.019-5.648c-0.078-1.721-0.758-3.169-2.548-3.729
			c-1.674-0.523-3.049,0.259-3.77,1.618c-1.684,3.175-3.459,6.366-4.574,9.756c-0.815,2.478-0.897,5.29-0.822,7.94
			c0.065,2.29,1.503,4.01,3.844,4.655c1.998,0.55,4.096-0.35,5.461-2.531c0.768-1.229,1.417-2.642,1.678-4.054
			C979.285,770.54,979.448,767.85,979.745,765.185z M991.127,767.043c-0.129,0.036-0.258,0.072-0.387,0.108
			c0.828,4.077,1.431,8.218,2.55,12.214c1.07,3.82,3.422,5.619,5.777,5.167c2.545-0.489,4.213-3.177,4.025-7.127
			c-0.288-6.088-3.3-11.334-5.719-16.717c-0.394-0.876-2.306-1.686-3.322-1.494c-1.01,0.191-2.216,1.55-2.543,2.636
			C991.017,763.458,991.219,765.295,991.127,767.043z"/>
		<path fill="#FFFFFF" d="M429.336,892.619c2.134,0.653,3.981,1.019,5.657,1.768c5.055,2.262,10.172,4.421,14.147,8.539
			c1.605,1.663,3.402,1.669,4.66,0.406c1.402-1.406,1.287-3.081,0.128-4.396c-1.591-1.806-3.315-3.608-5.303-4.929
			c-5.311-3.528-10.942-6.513-17.157-8.15c-2.405-0.634-3.591-1.83-3.766-4.43c-0.227-3.364-0.848-6.705-1.381-10.042
			c-0.347-2.17,0.552-3.64,2.296-4.769c2.467-1.597,5.181-2.299,8.094-2.201c8.621,0.289,17.054,1.776,24.643,5.944
			c17.182,9.438,30.885,22.289,38.318,40.919c3.534,8.858,4.243,17.852,0.952,26.944c-1.293,3.573-3.511,6.319-7.663,7.398
			c-0.728-1.369-1.318-2.72-2.116-3.934c-2.593-3.95-5.185-7.906-7.943-11.74c-0.925-1.285-2.244-2.366-3.57-3.262
			c-1.799-1.216-3.618-0.929-4.759,0.433c-1.131,1.352-0.952,3.077,0.818,4.59c4.332,3.704,7.21,8.452,9.502,13.508
			c6.215,13.712,10.059,27.966,9.244,43.218c-0.695,13.004-3.191,25.495-10.036,36.803c-1.028,1.699-2.23,3.293-3.581,5.271
			c-8.134-9.516-18.658-14.894-28.893-20.598c-12.876-7.175-22.694-17.317-30.497-29.665c-8.392-13.279-16.192-26.856-23.123-40.98
			c-17.941-36.56-36.147-72.991-54.39-109.402c-6.001-11.977-12.441-23.742-20.226-34.689
			c-14.766-20.763-32.906-37.681-56.242-48.469c-15.648-7.234-32.122-11.292-49.403-11.734c-6.268-0.16-12.403,0.804-18.331,2.93
			c-0.602,0.216-1.23,0.358-2.52,0.728c5.356-7.764,11.345-13.883,18.501-18.862c11.858-8.251,24.966-12.416,39.439-13.281
			c25.056-1.498,48.751,3.384,71.215,14.222c24.052,11.604,42.615,29.364,56.726,51.934c12.214,19.536,21.016,40.599,27.622,62.569
			c3.109,10.341,5.743,20.884,7.677,31.503c2.103,11.547,3.201,23.281,4.619,34.948c0.604,4.964,0.972,9.961,1.313,14.952
			c0.098,1.438-0.223,2.916-0.442,4.362c-0.35,2.309,0.547,3.952,2.487,4.393c1.906,0.434,3.738-0.681,4.252-2.809
			c0.281-1.163,0.308-2.422,0.25-3.628c-0.375-7.7-0.81-15.397-1.211-23.095C429.295,894.935,429.336,894.028,429.336,892.619z"/>
		<path fill="#FFFFFF" d="M291.49,435.885c2.109,8.932,2.194,16.941-0.475,24.798c-8.894,26.186-27.539,41.077-54.365,45.985
			c-14.175,2.593-26.054-2.486-36.118-12.341c-3.725-3.647-4.951-8.199-4.675-13.403c0.832-0.263,1.442-0.583,2.074-0.636
			c10.039-0.835,18.143-5.839,25.747-11.915c0.733-0.585,1.399-1.289,1.967-2.037c0.977-1.287,1.302-2.709,0.216-4.105
			c-1.21-1.555-2.773-1.497-4.375-0.723c-0.726,0.35-1.393,0.832-2.054,1.301c-1.324,0.94-2.649,1.881-3.932,2.877
			c-8.764,6.805-18.763,8.822-29.513,7.231c-34.292-5.074-56.26-24.531-66.374-57.507c-4.135-13.482-5.194-27.361-4.168-41.368
			c0.747-10.197,4.201-19.253,12.407-25.981c9.346-7.662,19.866-10.753,31.786-8.049c3.015,0.684,6.014,1.689,8.827,2.969
			c10.47,4.765,19.424,11.705,27.586,19.733c2.348,2.31,2.939,4.723,1.897,8.052c-3.293,10.525,0.886,23.208,9.818,29.71
			c2.576,1.875,3.092,3.932,3.161,6.829c0.282,11.786-13.939,25.311-26.785,23.03c-1.193-0.212-2.456-0.351-3.529-0.857
			c-10.654-5.021-19.362-12.248-23.127-23.708c-2.289-6.968-4.408-14.141-4.693-21.625c-0.026-0.674-0.063-1.36-0.207-2.016
			c-0.49-2.231-1.751-3.434-3.443-3.36c-1.669,0.073-2.988,1.319-3.162,3.621c-0.172,2.272,0.069,4.581,0.208,6.869
			c0.088,1.451,0.322,2.892,0.587,5.17c-1.9-1.123-3.146-1.821-4.352-2.583c-1.257-0.795-2.43-1.732-3.721-2.463
			c-2.372-1.344-3.971-1.228-5.119,0.22c-1.225,1.544-0.8,3.277,1.417,5.222c1.012,0.888,2.129,1.676,3.272,2.393
			c2.635,1.654,5.262,3.336,7.995,4.815c1.899,1.028,3.074,2.35,3.752,4.466c4.262,13.309,13.583,22.305,25.593,28.556
			c9.707,5.052,19.261,3.372,27.936-2.84c8.3-5.944,13.685-13.778,14.08-24.392c0.019-0.518,0.186-1.03,0.334-1.808
			c1.147,0.1,2.195,0.095,3.203,0.293c8.32,1.636,16.141-0.096,23.674-3.555c10.752-4.937,18.944-12.884,25.816-22.319
			c1.671-2.295,3.383-4.602,4.701-7.101c1.373-2.603,3.467-4.051,6.07-5.013c4.751-1.758,9.05-4.28,12.776-7.715
			c1.082-0.998,2.125-2.114,2.897-3.355c1.14-1.831,0.801-3.662-0.583-4.747c-1.418-1.112-2.971-0.878-4.563,0.977
			c-2.591,3.02-5.593,5.378-9.821,6.914c0.288-1.424,0.465-2.436,0.699-3.435c0.927-3.946,2.044-7.857,2.737-11.843
			c0.336-1.93,0.081-4.031-0.267-5.99c-0.251-1.411-1.444-2.274-3.006-2.22c-1.566,0.054-2.448,1.012-2.864,2.435
			c-0.15,0.513-0.187,1.061-0.245,1.597c-2.324,21.313-13.086,37.808-29.582,50.766c-6.956,5.464-15.07,8.352-24.193,7.856
			c-11.68-0.635-19.912-7.973-21.347-19.504c-0.68-5.467,0.878-10.179,5.46-13.612c2.166-1.623,4.325-3.255,6.47-4.905
			c8.16-6.28,14.698-13.953,19.633-22.986c3.438-6.293,6.669-12.705,10.303-18.881c2.527-4.294,5.151-8.668,8.48-12.326
			c10.239-11.248,26.005-13.107,38.729-4.769c11.15,7.306,17.766,17.956,21.59,30.498c2.973,9.754,2.929,19.789,2.222,29.792
			c-0.883,12.497-3.882,24.555-8.626,36.166c-3.509,8.588-8.109,16.547-14.247,23.501c-8.231,9.326-17.419,17.469-29.741,20.979
			c-3.872,1.103-7.922,1.583-11.898,2.313c-1.06,0.194-2.172,0.143-3.212,0.4c-2.129,0.526-3.271,1.927-3.145,3.637
			c0.124,1.695,1.431,2.976,3.59,3.256c1.194,0.155,2.435,0.103,3.64-0.013c12.907-1.233,24.289-6.152,34.343-14.268
			C288.684,438.006,289.751,437.221,291.49,435.885z"/>
		<path fill="#FFFFFF" d="M410.547,989.005c-2.781,0.317-5.56,0.891-8.342,0.908c-13.262,0.081-26.525,0.012-39.787-0.007
			c-0.541-0.001-1.093-0.122-1.621-0.05c-6.535,0.891-11.987-1.668-17.529-4.803c-38.663-21.873-73.844-48.232-104.322-80.648
			c-17.881-19.018-33.586-39.643-45.12-63.213c-5.92-12.098-10.477-24.658-12.276-38.072c-0.519-3.875-0.488-7.822-0.744-11.733
			c-0.154-2.341,0.931-3.977,2.992-4.803c3.751-1.503,7.478-3.247,11.386-4.138c10.588-2.413,21.241-1.642,31.832,0.274
			c21.64,3.915,39.742,14.616,55.415,29.587c17.7,16.907,32.979,35.801,45.459,56.931c17.9,30.306,36.877,59.928,56.89,88.886
			c7.109,10.286,15.01,19.862,24.374,28.183c0.597,0.53,1.374,0.857,2.068,1.278C410.996,988.06,410.772,988.533,410.547,989.005z"
			/>
		<path fill="#FFFFFF" d="M410.913,977.423c-5.397-4.206-9.98-9.128-13.842-14.609c-8.571-12.163-17.219-24.293-25.244-36.815
			c-13.576-21.184-26.688-42.666-40.008-64.014c-14.565-23.342-31.749-44.501-52.925-62.172
			c-15.791-13.177-33.846-21.739-54.325-24.805c-14.282-2.138-28.33-1.965-41.723,4.401c-0.343,0.163-0.773,0.143-1.437,0.255
			c-0.064-0.845-0.308-1.638-0.147-2.338c1.389-6.053,2.799-12.102,4.305-18.127c1.649-6.599,6.405-10.485,12.171-13.293
			c4.419-2.152,9.164-3.211,14.089-3.49c11.192-0.634,22.111,0.929,32.915,3.764c25.641,6.728,46.216,21.231,63.429,40.992
			c9.757,11.201,17.515,23.737,24.273,36.871c9.407,18.281,18.467,36.741,27.656,55.134c12.938,25.898,25.789,51.839,38.84,77.68
			c2.982,5.905,6.631,11.473,9.976,17.194C409.575,975.179,410.247,976.299,410.913,977.423z"/>
		<path fill="#FFFFFF" d="M604.801,1000.001c37.762,22.904,77.233,27.592,118.367,13.069c40.915-14.446,69.065-42.707,86.22-82.399
			c-0.841,3.526-1.615,7.07-2.535,10.575c-5.974,22.761-15.649,43.723-29.98,62.507c-15.361,20.135-35.57,32.591-60.119,37.908
			c-24.491,5.304-48.936,4.012-73.148-2.082c-11.137-2.803-21.224-8.02-30.753-14.335c-1.68-1.113-3.065-2.665-4.716-3.832
			c-4.32-3.053-5.207-7.299-4.518-12.184C604.027,1006.335,604.364,1003.43,604.801,1000.001z"/>
		<path fill="#FFFFFF" d="M204.255,361.195c-5.054-4.604-9.597-9.034-14.446-13.097c-8.698-7.288-18.345-12.859-29.582-15.329
			c-4.951-1.088-9.9-1.222-14.891-0.376c-0.628,0.106-1.279,0.071-2.411,0.124c0.137-1.554,0.124-2.861,0.381-4.113
			c3.08-15.004,13.027-24.941,28.176-27.636c14.81-2.634,28.099,1.538,40.136,10.086c7.119,5.055,12.967,11.402,17.821,18.675
			c1.065,1.595,1.477,2.905,0.46,4.786C223.773,345.662,214.982,354.397,204.255,361.195z"/>
		<path fill="#FFFFFF" d="M259.825,294.181c-12.582,6.635-18.336,18.44-24.66,30.269c-0.923-0.931-1.551-1.523-2.133-2.157
			c-3.93-4.276-7.55-8.893-11.832-12.779c-12.098-10.98-26.377-16.717-42.843-16.64c-0.811,0.004-1.625-0.011-2.431-0.083
			c-0.228-0.02-0.436-0.271-1.034-0.67c0.526-1.234,0.994-2.597,1.659-3.857c9.459-17.908,27.182-25.766,46.889-20.461
			c10.181,2.74,19.263,7.87,27.45,14.485C254.625,285.306,257.004,289.449,259.825,294.181z"/>
		<path fill="#FFFFFF" d="M355.196,1023.618c11.586,0.548,23.032,1.262,34.488,1.529c3.562,0.083,7.167-0.962,10.726-1.634
			c3.838-0.725,7.622-1.762,11.477-2.354c1.203-0.185,2.644,0.46,3.833,1.026c8.905,4.237,17.799,8.501,26.646,12.857
			c5.087,2.505,10.123,5.121,15.095,7.846c1.704,0.933,3.143,2.348,5.14,3.878c-3.764,1.935-7.235,2.272-10.658,2.65
			c-9.806,1.082-19.611,1.922-29.492,0.679c-8.368-1.053-16.403-3.369-24.327-6.082c-7.154-2.45-14.213-5.18-21.286-7.861
			C368.947,1033.16,361.804,1028.86,355.196,1023.618z"/>
		<path fill="#FFFFFF" d="M818.785,864.129c-0.644-3.747-1.144-6.936-1.745-10.104c-3.332-17.554-7.083-34.994-13.669-51.695
			c-3.297-8.361-7.503-16.187-12.861-23.406c-1.668-2.247-3.165-4.62-5.106-7.473c1.453,0,2.327-0.08,3.181,0.018
			c1.476,0.169,2.935,0.476,4.409,0.677c10.883,1.486,17.635,7.551,21.424,17.883c5.793,15.796,10.624,31.814,13.271,48.433
			c0.803,5.038,1.531,10.131,0.285,15.31C826.795,858.669,823.888,861.788,818.785,864.129z"/>
		<path fill="#FFFFFF" d="M413.047,995.408c-1.649,8.276-5.135,14.734-11.663,19.339c-3.187,2.248-6.903,3.352-10.661,3.334
			c-7.684-0.036-15.386-0.333-23.04-0.989c-6.435-0.552-12.818-1.734-19.211-2.715c-1.271-0.195-2.488-0.747-4.282-1.307
			c2.854-5.104,4.801-10.171,8.383-14.233c1.001-1.135,3.021-1.79,4.621-1.888c2.806-0.171,5.65,0.439,8.474,0.407
			c12.547-0.14,25.095-0.322,37.639-0.654C406.359,996.622,409.396,995.912,413.047,995.408z"/>
		<path fill="#FFFFFF" d="M468.982,1043.065c-4.834-4.92-10.529-8.228-16.549-11.043c-12.345-5.772-24.688-11.55-37.028-17.333
			c-0.594-0.279-1.156-0.627-2.015-1.097c1.337-2.595,2.74-5.016,3.853-7.564c1.128-2.582,1.968-5.29,3.129-8.478
			c1.349,0.961,2.463,1.828,3.647,2.586c10.682,6.836,21.401,13.615,32.056,20.494c4.756,3.071,9.564,6.106,14.034,9.565
			C475.297,1034.21,477.49,1037.244,468.982,1043.065z"/>
		<path fill="#FFFFFF" d="M761.328,378.018c-0.68-2.427-1.354-4.855-2.041-7.279c-2.263-7.991-6.393-14.878-12.279-20.72
			c-10.066-9.991-23.258-11.504-35.777-4.765c-9.221,4.964-15.254,12.793-20.809,21.17c-2.009,3.029-3.62,6.341-5.21,9.623
			c-1.653,3.411-1.493,6.896,0.69,10.041c3.159,4.551,6.449,9.012,9.753,13.46c1.113,1.499,2.439,2.839,4.016,4.653
			c-1.288,0.375-2.087,0.682-2.914,0.836c-5.708,1.064-11.42,2.104-17.135,3.135c-4.377,0.789-6.91,3.483-7.887,7.706
			c-0.578,2.499-1.153,5.015-1.469,7.556c-1.552,12.478-1.387,24.877,2.715,36.91c1.252,3.674,3.112,7.179,5.013,10.583
			c2.022,3.619,5.056,6.309,8.885,8.047c0.965,0.438,1.845,1.065,3.181,1.85c-1.985,2.423-3.536,5.053-5.763,6.844
			c-2.606,2.096-5.866,1.656-8.805,0.213c-6.702-3.289-12.112-8.078-16.357-14.227c-5.098-7.384-7.999-15.576-9.427-24.389
			c-3.164-19.536-1.84-38.797,3.035-57.924c5.486-21.525,13.086-42.102,25.991-60.424c5.474-7.771,11.431-15.139,18.602-21.396
			c3.036-2.649,6.337-5.186,9.912-6.992c11.454-5.785,22.331-4.029,32.314,3.637c10.061,7.726,15.871,18.295,19.365,30.253
			C762.545,348.803,763.672,362.266,761.328,378.018z"/>
		<path fill="#FFFFFF" d="M514.836,384.68c-4.383,1.597-7.724,3.101-11.218,4.022c-5.404,1.425-8.6,4.793-8.919,10.209
			c-0.307,5.23-0.109,10.536,0.398,15.757c0.669,6.891,2.431,13.563,5.486,19.847c3.267,6.719,7.966,11.87,15.223,14.339
			c0.498,0.169,0.942,0.498,1.892,1.013c-1.083,0.744-1.825,1.467-2.714,1.827c-4.238,1.715-8.626,2.267-13.113,1.183
			c-7.555-1.826-13.718-5.775-17.758-12.506c-2.704-4.506-5.027-9.241-7.515-13.876c-1.343-2.502-2.449-5.167-4.063-7.479
			c-2.036-2.918-2.587-6.118-3.038-9.509c-2.031-15.267,0.383-30.213,3.155-45.117c3.056-16.432,7.846-32.334,15.459-47.282
			c6.252-12.277,14.252-23.301,24.165-32.892c4.437-4.293,9.407-7.608,15.669-8.834c6.682-1.308,12.617,0.221,18.089,3.968
			c5.585,3.824,9.79,8.901,12.934,14.86c5.37,10.177,8.393,21.109,9.862,32.444c0.814,6.281,0.968,12.647,1.42,18.974
			c-0.261,0.05-0.522,0.1-0.783,0.15c-0.308-0.84-0.673-1.664-0.915-2.522c-1.699-6.044-4.33-11.659-7.793-16.88
			c-2.883-4.347-6.563-7.857-11.043-10.582c-9.182-5.585-18.245-4.98-27.249,0.34c-4.885,2.886-8.612,6.991-11.616,11.721
			c-6.159,9.696-10.474,20.113-12.228,31.552c-0.794,5.175,0.244,9.712,3.809,13.53c2.488,2.663,5.159,5.156,7.79,7.681
			C511.467,381.809,512.808,382.901,514.836,384.68z"/>
	</g>
	<g>
		<path fill="#B7B7B7" d="M798.953,314.219c1.463-2.543,3.411-3.543,5.421-4.208c11.807-3.901,23.541-5.08,34.95,1.396
			c4.472,2.538,8.994,4.99,13.408,7.625c6.461,3.857,11.776,8.96,16.528,14.817c4.85,5.978,10.234,11.522,15.327,17.307
			c3.308,3.756,6.562,7.562,9.756,11.416c8.573,10.345,14.71,22.005,18.72,34.816c3.594,11.484,7.499,22.877,10.789,34.446
			c1.73,6.083,2.583,12.435,3.558,18.707c0.703,4.522,1.172,9.02,2.455,13.492c1.403,4.891,1.857,10.096,2.337,15.201
			c1.663,17.708-0.27,35.107-4.728,52.287c-4.151,16.001-8.831,31.813-15.971,46.784c-1.04,2.181-2.417,4.199-3.609,6.309
			c-0.86,1.523-1.796,3.019-2.486,4.619c-8.056,18.686-17.244,36.749-29.059,53.39c-6.149,8.661-13.331,16.354-21.526,23.103
			c-1.043,0.859-2.113,1.7-3.25,2.426c-3.985,2.545-8.252,3.454-12.758,1.63c-2.9-1.174-5.66-0.89-8.171,0.656
			c-5.215,3.21-9.95,6.883-11.494,13.352c-0.94,3.94-2.033,7.856-3.3,11.703c-0.749,2.275-1.728,4.552-3.03,6.549
			c-2.62,4.018-6.102,7.275-10.306,9.605c-17.785,9.857-35.953,18.85-55.804,23.872c-14.057,3.556-28.244,4.721-42.644,2.25
			c-6.218-1.067-11.973-3.271-17.53-6.162c-3.477-1.809-7.085-3.372-10.525-5.246c-1.737-0.946-3.488-2.118-4.756-3.597
			c-1.166-1.36-2.284-1.704-3.86-1.387c-0.928,0.187-1.868,0.316-2.798,0.494c-11.818,2.262-23.422,1.791-34.751-2.597
			c-3.279-1.27-6.678-2.238-9.928-3.571c-2.744-1.126-5.771-2.105-7.932-3.996c-3.917-3.428-8.91-4.386-13.28-6.71
			c-0.955-0.508-2.576-0.075-3.793,0.27c-12.016,3.409-24.112,6.087-36.746,5.541c-8.477-0.366-16.618-1.933-24.477-5.18
			c-4.868-2.012-9.896-3.634-14.808-5.547c-1.872-0.729-3.786-1.55-5.397-2.72c-9.961-7.241-19.994-14.392-27.976-23.974
			c-4.127-4.955-8.54-9.673-12.964-14.655c0.194-0.049-0.162-0.069-0.267,0.083c-3.492,5.089-6.05,6.148-12.011,4.939
			c-0.133-0.027-0.274-0.027-0.399-0.074c-9.964-3.76-20.349-6.503-29.151-12.965c-6.339-4.654-11.496-10.173-15.124-17.201
			c-1.661-3.217-3.854-6.169-5.909-9.17c-2.904-4.241-5.937-8.394-8.841-12.635c-0.888-1.297-1.534-2.759-2.291-4.145
			c0.229-0.218,0.457-0.436,0.686-0.653c1.218,1.065,2.466,2.097,3.648,3.2c3.753,3.503,7.376,7.156,11.265,10.499
			c2.03,1.745,4.503,2.977,6.794,4.413c2.284,1.433,4.641,2.756,6.875,4.262c4.951,3.337,10.073,4.471,16.134,3.148
			c9.342-2.039,14.652-7.512,16.597-16.656c0.308-1.448,0.671-2.926,1.298-4.253c0.747-1.582,2.223-1.664,3.147-0.2
			c0.712,1.128,1.254,2.415,1.616,3.703c2.579,9.169,7.54,16.974,13.454,24.317c8.797,10.922,18.471,20.897,30.269,28.599
			c14.358,9.374,30.087,13.294,47.159,11.082c5.482-0.71,10.98-1.637,16.319-3.042c9.353-2.462,14.571-5.459,24.456-13.034
			c0.672,0.714,1.439,1.403,2.057,2.206c5.914,7.681,13.578,12.686,22.953,15.095c0.655,0.168,1.37,0.206,1.962,0.498
			c10.945,5.402,22.357,4.242,33.821,2.469c14.035-2.171,27.165-7.135,40.032-12.926c7.89-3.551,15.745-7.188,23.709-10.565
			c15.521-6.58,28.998-16.227,41.518-27.33c20.667-18.327,36.838-40.258,51.108-63.734c16.416-27.006,26.879-56.265,33.732-86.993
			c5.71-25.6,9.309-51.384,8.015-77.668c-0.775-15.735-3.202-31.192-8.648-46.083c-4.926-13.467-13.325-24.397-24.294-33.409
			c-6.276-5.156-13.468-8.508-21.6-9.635C801.583,314.728,800.538,314.504,798.953,314.219z M462.511,637.331
			c-0.169,0.036-0.338,0.071-0.507,0.107c0.161,0.891,0.321,1.782,0.481,2.674c0.227-0.045,0.453-0.091,0.679-0.136
			C462.947,639.094,462.729,638.212,462.511,637.331z"/>
		<path fill="#B7B7B7" d="M409.117,1015.723c2.176,0.862,4.249,1.515,6.168,2.475c6.039,3.024,12.265,5.778,17.954,9.371
			c5.294,3.344,10.696,6.268,16.499,8.568c3.009,1.192,5.909,2.688,8.771,4.21c1.415,0.753,2.785,1.725,3.91,2.86
			c3.564,3.594,2.678,8.063-1.853,10.224c-1.046,0.499-2.121,1.13-2.899,1.965c-3.268,3.507-6.49,4.416-10.899,2.475
			c-2.704-1.19-5.214-2.822-8.15-4.442c-3.303,3.736-7.495,2.93-11.834,1.923c-13.211-3.065-26.118-7.144-38.515-12.569
			c-8.772-3.839-17.149-8.586-25.681-12.969c-2.883-1.481-5.83-2.897-8.515-4.69c-2.759-1.842-5.2-4.039-8.225-5.636
			c-5.295-2.795-5.847-8.594-1.784-12.92c0.554-0.59,1.19-1.13,1.624-1.799c2.703-4.176,5.359-8.383,8.175-12.806
			c-1.121-0.271-2.231-0.651-3.372-0.796c-6.5-0.826-12.646-2.882-18.668-5.347c-4.325-1.77-7.906-4.555-11.121-7.965
			c-3.801-4.03-7.874-7.803-11.838-11.679c-0.385-0.376-0.782-0.803-1.259-1.013c-9.681-4.266-17.331-11.465-25.563-17.795
			c-14.493-11.146-27.672-23.809-41.098-36.176c-4.474-4.121-8.493-8.651-11.731-13.915c-1.886-3.066-4.687-5.581-7.144-8.282
			c-9.169-10.081-16.905-21.102-22.299-33.681c-0.371-0.866-0.825-1.715-1.363-2.486c-5.469-7.822-9.394-16.404-12.715-25.314
			c-0.937-2.514-2.345-4.864-3.647-7.228c-4.73-8.59-6.735-17.602-4.711-27.378c0.495-2.393,1.429-4.222,3.386-5.73
			c9.072-6.994,19.579-9.48,30.733-9.889c2.137-0.078,4.412,0.057,6.417,0.719c3.925,1.294,7.921,1.426,11.966,1.702
			c7.027,0.479,13.353,3.178,19.393,6.673c10.941,6.329,21.008,13.862,30.372,22.307c21.161,19.083,40.691,39.782,57.366,62.855
			c10.91,15.097,20.208,31.372,29.985,47.269c5.809,9.445,11.213,19.142,16.672,28.798c5.173,9.151,11.574,17.256,19.379,24.324
			c3.09,2.798,5.797,6.048,8.455,9.276c0.97,1.178,1.684,2.857,1.809,4.366c0.151,1.828,0.751,2.858,2.287,3.866
			c4.443,2.913,4.866,7.106,0.995,10.81c-1.572,1.504-2.246,3.198-2.959,5.113C412.328,1008.759,410.735,1012.029,409.117,1015.723z
			 M362.052,992.859c1.915,3.241,1.915,3.241,7.004,1.314C366.488,993.691,364.58,993.333,362.052,992.859z"/>
		<path fill="#B7B7B7" d="M572.078,490.699c-4.81,3.179-9.446,3.344-13.957,3.913c-1.6,0.202-3.279-0.086-4.843,0.236
			c-2.342,0.483-4.966,0.806-6.826,2.114c-2.253,1.584-3.942,1.27-5.898,0.047c-6.364-3.979-11.773-8.961-16.217-15.044
			c-2.533-3.466-1.292-7.004-0.477-10.455c0.42-1.78,2.524-2.109,4.101-1.806c2.215,0.425,4.629,0.903,6.447,2.121
			c8.72,5.845,18.103,10.124,28.184,12.979c1.799,0.51,3.571,1.302,5.171,2.269C569.184,487.933,570.35,489.217,572.078,490.699z"/>
		<path fill="#B7B7B7" d="M465.898,573.289c2.656,0,5.013,0,7.475,0C471.815,576.748,470.341,576.748,465.898,573.289z"/>
		<path fill="#B7B7B7" d="M712.584,541.945c-1.673-0.298-2.848-0.507-4.286-0.764C710.283,538.992,710.283,538.992,712.584,541.945z
			"/>
	</g>
	<g>
		<path d="M607.37,1030.435c-2.588-2.474-4.819-4.808-7.264-6.892c-2.696-2.299-3.928-5.049-3.571-8.569
			c0.656-6.453,1.328-12.906,1.87-19.369c0.224-2.675,0.369-5.398,0.142-8.064c-1.71-20.049,2.597-38.691,12.692-56.07
			c7.174-12.35,17.928-20.037,31.321-24.281c7.5-2.377,15.187-3.915,23.069-4.361c1.469-0.083,2.928-0.331,5.015-0.576
			c-1.085-0.93-1.69-1.549-2.388-2.032c-6.644-4.596-12.287-10.204-16.737-16.937c-1.352-2.045-2.828-2.814-5.305-2.746
			c-7.43,0.205-14.885,0.444-22.301,0.079c-30.846-1.515-59.32-10.256-84.498-28.57c-3.713-2.7-7.126-5.813-10.667-8.747
			c-1.23-1.019-2.428-2.078-3.861-3.308c-0.761,1.177-1.395,2.024-1.893,2.944c-8.705,16.088-16.607,32.529-22.282,49.978
			c-0.66,2.031-0.494,3.529,0.503,5.317c3.97,7.12,7.326,14.478,8.404,22.693c0.92,7.002,0.129,13.771-2.498,20.309
			c-1.772,4.41-4.623,7.922-8.919,10.143c-0.711,0.368-1.39,0.797-2.259,1.3c8.662,28.156,7.757,55.278-8.51,80.951
			c2.506,2.066,5.605,2.472,8.493,3.377c5.8,1.819,11.659,3.478,17.375,5.534c5.51,1.981,10.476,5.038,14.939,8.864
			c0.514,0.44,1.04,0.869,1.532,1.332c9.863,9.281,10.206,18.943,0.742,28.577c-9.471,9.64-20.678,16.936-32.373,23.595
			c-20.008,11.392-41.44,19.22-63.367,25.873c-24.656,7.481-49.827,12.623-75.344,15.931c-11.385,1.476-22.915,1.828-34.372,2.769
			c-14.762,1.212-29.473,0.063-44.182-0.918c-6.067-0.405-12.249-0.619-18.125-2c-10.365-2.437-20.961-4.49-30.323-9.974
			c-3.238-1.897-6.452-4.077-9.082-6.72c-6.597-6.631-8.363-14.607-5.342-23.542c1.498-4.43,3.996-8.266,7.068-11.749
			c4.516-5.121,9.775-9.336,15.647-12.802c17.398-10.27,36.159-17.121,55.683-21.967c16.805-4.171,33.66-8.246,50.908-10.086
			c12.359-1.318,24.792-1.93,37.014-2.843c-0.782-0.345-1.914-0.972-3.122-1.357c-15.382-4.903-28.29-14.009-40.696-23.952
			c-3.517-2.819-4.392-8.21-2.043-12.908c1.814-3.627,3.892-7.122,5.861-10.671c0.516-0.93,1.064-1.843,1.848-3.198
			c-1.611-0.925-3.08-1.794-4.572-2.621c-38.48-21.341-73.444-47.327-104.102-78.969c-16.73-17.266-31.712-35.904-43.695-56.824
			c-8.316-14.518-15.153-29.679-18.321-46.206c-6.501-33.911,1.601-63.701,26.282-88.242c12.973-12.899,28.867-20.253,47.212-22.137
			c51.241-5.264,107.235,16.963,139.153,67.954c13.322,21.282,22.766,44.222,30.014,68.135c2.156,7.112,3.765,14.389,5.638,21.587
			c0.261,1.001,0.601,1.981,1.063,3.49c5.45-3.373,11.183-3.887,16.918-3.413c0.513-0.959,0.915-1.517,1.13-2.14
			c9.585-27.759,24.287-52.483,44.154-74.096c2.421-2.634,3.156-5.01,2.435-8.659c-5.149-26.064-2.685-51.691,5.105-76.932
			c0.434-1.407,0.852-2.819,1.49-4.934c-0.525-0.318-1.277-0.671-1.911-1.173c-7.27-5.761-13.472-12.575-18.755-20.138
			c-2.554-3.656-5.885-4.413-9.786-4.445c-0.938-0.008-1.894,0.158-2.815,0.362c-8.732,1.933-16.637-0.57-24.146-4.694
			c-10.94-6.01-20.197-14.071-27.791-23.958c-15.68-20.415-26.505-43.317-34.351-67.719c-0.413-1.284-0.854-2.559-1.328-3.822
			c-0.08-0.214-0.393-0.341-0.703-0.594c-2.55,1.672-5.094,3.438-7.73,5.053c-14.548,8.907-30.474,11.5-47.197,9.922
			c-13.314-1.256-26.027-4.885-38.158-10.523c-13.908-6.464-25.165-16.26-34.891-27.933c-6.168-7.404-11.927-15.099-15.249-24.288
			c-0.669-1.85-1.82-2.368-3.659-2.468c-11.711-0.637-21.622-5.466-30.277-13.178c-5.429-4.837-8.521-10.759-8.614-18.121
			c-0.005-0.405-0.027-0.814-0.088-1.214c-0.04-0.262-0.163-0.512-0.327-1.001c-0.465-0.168-1.055-0.506-1.681-0.592
			c-38.344-5.274-62.924-26.704-74.029-63.559c-4.409-14.634-5.791-29.702-4.13-44.971c1.762-16.196,9.812-28.102,24.394-35.43
			c2.068-1.039,2.989-2.244,3.214-4.575c0.878-9.081,3.799-17.389,9.794-24.473c4.861-5.744,10.805-9.823,18.041-11.858
			c2.497-0.702,3.619-2.066,4.468-4.517c8.68-25.077,30.855-34.222,49.847-31.382c14.539,2.174,26.92,8.897,37.966,18.094
			c3.639,3.03,6.116,7.512,8.89,11.494c1.158,1.662,2.146,2.338,4.27,1.97c12.881-2.232,24.148,1.345,33.7,10.119
			c13.081,12.016,19.863,27.071,21.106,44.729c1.477,20.968-2.517,40.917-11.061,60.026c-3.619,8.093-8.548,15.37-14.303,22.073
			c-1.486,1.73-1.86,3.167-1.154,5.439c3.4,10.929,3.313,21.816-0.905,32.593c-2.528,6.459-5.313,12.815-9.744,18.167
			c-2.421,2.924-2.662,5.873-1.623,9.031c3.086,9.379,7.932,17.501,17.068,22.285c17.765,9.303,35.981,10.951,54.747,3.215
			c0.375-0.155,0.74-0.334,1.108-0.505c4.122-1.913,4.165-2.078,3.398-6.437c-1.407-7.99-2.856-15.975-4.097-23.991
			c-2.133-13.781-3.546-27.654-3.798-41.592c-0.254-14.065-0.627-28.174,0.155-42.202c1.869-33.511,7.506-66.388,19.232-97.987
			c8.259-22.256,21.84-40.641,41.025-54.771c0.545-0.401,1.102-0.789,1.62-1.223c14.108-11.794,30.664-17.459,48.705-19.195
			c3.455-0.332,7.066-0.13,10.486,0.488c8.687,1.568,17.161,3.954,24.596,8.977c2.336,1.578,4.416,3.533,6.733,5.413
			c25.941-9.991,48.679-3.98,69.092,14.589c12.434-9.885,26.125-17.276,41.823-20.5c15.689-3.222,30.933-1.612,45.596,4.286
			c4.709-3.161,6.784-7.825,8.65-12.622c5.395-13.869,6.056-27.92,1.387-42.1c-2.86-8.686-8.429-15.45-15.955-20.426
			c-12.003-7.935-23.595-5.052-32.914,5.437c-4.207,4.735-5.058,10.683-4.124,16.814c0.234,1.537,0.971,3.152,1.917,4.397
			c3.033,3.991,7.527,3.896,10.585-0.079c1.071-1.392,1.912-2.986,3.107-4.253c3.635-3.854,8.456-2.738,10.103,2.297
			c1.616,4.94,0.505,9.475-2.789,13.284c-6.349,7.343-16.69,11.319-27.31,4.466c-2.138-1.379-4.214-3.032-5.873-4.946
			c-9.001-10.381-12.744-22.62-11.186-36.142c1.867-16.198,14.061-28.305,30.663-31.492c9.858-1.892,19.469-0.736,28.745,2.69
			c15.044,5.556,27.261,14.967,35.905,28.53c3.088,4.845,5.092,10.379,7.688,15.803c0.466-0.582,1.174-1.298,1.688-2.132
			c6.506-10.551,15.316-18.881,25.252-26.094c6.668-4.841,14.054-7.989,22.258-9.285c21.261-3.361,39.86,12.173,41.739,32.954
			c1.028,11.371-3.643,20.563-14.064,25.748c-5.882,2.927-12.257,5.147-18.648,6.716c-20.016,4.914-33.993,17.154-43.641,34.852
			c-1.535,2.815-2.457,5.993-3.415,9.08c-0.456,1.471-0.331,3.122-0.5,5.043c4.17-0.226,7.908-0.293,11.617-0.654
			c16.029-1.561,30.172,3.352,43.049,12.508c12.964,9.217,23.159,20.718,28.906,35.79c0.188,0.494,0.46,0.957,0.655,1.356
			c0.395,0.081,0.715,0.259,0.894,0.166c12.512-6.492,25.517-6.303,38.666-2.605c11.925,3.354,22.238,9.794,31.791,17.508
			c31.989,25.83,51.94,59.053,60.536,99.145c4.149,19.35,6.994,38.866,6.463,58.754c-0.388,14.529-2.292,28.837-5.77,42.944
			c-0.347,1.408-0.525,2.858-0.808,4.434c1.293,0.472,2.262,0.93,3.282,1.183c25.648,6.37,45.029,21.215,58.553,43.724
			c10.388,17.288,16.427,36.103,18.896,56.119c1.475,11.956,0.175,23.768-1.337,35.584c-0.944,7.383-2.195,14.711-5.299,21.912
			c1.901,1.599,3.763,3.113,5.567,4.691c7.189,6.289,12.6,13.692,14.887,23.171c2.172,9,1.36,17.197-5.678,23.975
			c-0.283,0.273-0.462,0.658-0.672,1.001c-0.068,0.111-0.08,0.257-0.179,0.601c0.4,0.952,0.869,2.064,1.333,3.178
			c3.319,7.96,5.132,16.188,5.014,24.877c-0.072,5.254,0.152,10.544,0.719,15.767c0.575,5.29,3.408,9.62,7.067,13.412
			c7.193,7.455,16.052,11.804,26.054,14.047c4.75,1.065,9.525,2.043,14.234,3.266c5.169,1.342,9.871,3.668,13.864,7.317
			c9.746,8.907,10.476,22.963,1.532,32.681c-6.919,7.518-15.79,11.297-25.776,12.374c-8.612,0.929-16.963-0.46-25.053-3.677
			c-11.057-4.396-21.082-10.419-30.014-18.274c-4.732-4.161-8.474-9.092-11.478-14.609c-0.83-1.525-1.718-3.019-2.612-4.586
			c-0.874,0.173-1.527,0.273-2.166,0.433c-4.454,1.115-4.474,1.125-4.469,5.702c0.013,11.666,3.165,22.436,9.351,32.309
			c2.011,3.21,4.252,6.276,6.245,9.496c5.504,8.893,6.919,18.428,3.802,28.428c-3.765,12.08-16.287,19.15-28.589,16.126
			c-9.498-2.335-17.488-7.367-23.411-15.154c-8.945-11.761-13.076-25.294-14.216-39.951c-0.923-11.865-0.249-23.505,3.052-34.961
			c0.148-0.515,0.229-1.062,0.254-1.597c0.018-0.392-0.109-0.79-0.21-1.436c-0.821-0.203-1.697-0.422-2.575-0.635
			c-4.453-1.081-9.002-1.878-13.325-3.34c-2.843-0.962-5.047-0.724-6.984,1.365c-2.016,2.174-4.099,4.352-5.717,6.815
			c-7.083,10.773-10.347,22.776-11.388,35.549c-0.449,5.502-1.216,11.055-2.597,16.388c-2.612,10.088-8.511,14.225-18.948,14.11
			c-18.882-0.207-32.113-12.389-34.181-31.164c-1.327-12.046,1.722-23.099,7.133-33.618c2.282-4.435,5.149-8.575,7.839-12.793
			c4.874-7.644,10.047-15.108,14.631-22.92c2.438-4.154,4.128-8.799,5.751-13.367c1.945-5.477,0.705-10.514-3.608-14.449
			c-2.58-2.353-5.421-4.506-8.408-6.311c-6.252-3.777-12.699-7.229-19.03-10.878c-8.635-4.978-16.315-11.103-22.567-18.941
			c-5.57-6.982-9.475-14.777-11.728-23.411c-0.368-1.409-0.774-2.808-1.286-4.659c-1.396,0.871-2.513,1.528-3.59,2.246
			c-20.216,13.465-41.917,23.702-65.519,29.607c-28.303,7.081-54.762,2.772-79.016-13.681c-2.831-1.92-5.472-3.42-8.95-2.124
			c-0.49,0.183-1.075,0.186-1.61,0.159c-10.563-0.532-19.497,4.028-27.836,9.593c-22.34,14.908-43.409,31.432-62,50.923
			c-4.967,5.207-5.52,3.92-0.331,10.344c8.503,10.527,18.648,19.155,30.113,26.332c5.506,3.447,11.338,5.766,17.766,6.406
			c8.738,0.871,17.489,1.656,26.249,2.246c3.87,0.261,3.92,0.011,4.906-3.741c2.835-10.788,7.779-20.444,15.279-28.753
			c3.932-4.356,8.417-8.045,13.468-11.006c7.7-4.513,15.959-6.637,24.899-5.225c2.9,0.458,4.998-0.186,7.146-2.449
			c8.949-9.43,20.368-14.024,32.998-15.926c10.282-1.549,20.581-1.619,30.528,1.671c5.035,1.665,9.575,2.782,15.129,1.653
			c7.814-1.589,15.595,0.664,22.873,3.901c4.983,2.216,8.862,5.855,11.148,10.806c2.774,6.009,5.615,12.052,7.623,18.337
			c3.908,12.233,7.64,24.554,9.555,37.307c0.902,6.009,1.82,12.008,0.788,18.157c-1.18,7.036-4.612,12.544-10.905,15.717
			c-4.099,2.067-4.733,4.603-4.428,8.947c1.499,21.328-0.158,42.412-5.69,63.17c-6.268,23.523-15.767,45.464-30.529,64.966
			c-0.709,0.937-1.302,1.963-2.197,3.325c3.054,0.427,5.689,0.702,8.288,1.177c6.618,1.21,12.72,3.677,18.095,7.79
			c0.965,0.738,1.906,1.527,2.753,2.395c4.994,5.124,5.8,10.602,1.827,16.521c-2.155,3.21-4.898,6.146-7.824,8.691
			c-6.494,5.649-14.165,9.461-22.019,12.823c-19.398,8.303-39.638,13.617-60.524,16.413c-24.047,3.22-48.223,4.564-72.472,3.815
			c-15.005-0.464-30.033-1.239-44.724-4.698c-4.98-1.173-9.908-2.776-14.64-4.719c-2.936-1.206-5.736-3.111-8.106-5.247
			c-4.227-3.811-5.199-8.696-3.285-14.092c1.309-3.69,3.738-6.528,6.74-8.965c5.639-4.577,11.913-7.948,18.836-10.129
			C605.352,1031.242,606.194,1030.878,607.37,1030.435z M500.464,249.133c-2.599-1.85-4.199-3.356-6.086-4.269
			c-10.009-4.844-20.456-7.983-31.73-6.591c-14.022,1.732-26.909,6.171-38.707,14.445c-21.45,15.041-36.859,34.424-45.386,59.198
			c-11.095,32.235-16.558,65.526-17.767,99.498c-0.471,13.233,0.147,26.511,0.492,39.763c0.384,14.763,2.316,29.384,4.613,43.954
			c3.61,22.898,9.573,45.242,16.131,67.431c6.876,23.263,16.868,45.08,30.827,64.998c6.993,9.979,15.392,18.558,25.86,24.865
			c3.784,2.279,7.936,4.128,12.143,5.479c5.237,1.682,10.541,0.852,16.084-0.863c-0.812-1.78-1.429-2.968-1.908-4.209
			c-2.33-6.051-4.862-12.04-6.831-18.208c-1.008-3.157-1.184-6.632-1.355-9.983c-0.115-2.255,1.309-3.609,3.046-3.541
			c1.951,0.076,2.918,1.299,3.099,3.124c1.053,10.609,5.304,20.108,10.417,29.232c12.929,23.071,31.153,39.775,57.447,46.097
			c7.985,1.92,16.255,2.655,24.392,3.945c10.789,1.71,21.559,1.712,32.287-0.448c2.189-0.441,4.317-1.183,6.739-1.86
			c-0.576-1.511-0.994-2.476-1.314-3.473c-1.033-3.215-2.152-6.411-2.998-9.676c-0.555-2.143,0.369-3.764,2.001-4.345
			c1.649-0.587,3.41,0.085,4.363,1.996c0.777,1.558,1.181,3.298,1.8,4.939c0.808,2.143,1.479,4.365,2.533,6.384
			c4.596,8.806,11.957,14.106,21.47,16.611c14.428,3.799,28.871,3.418,43.357,0.333c10.655-2.269,20.715-6.209,30.589-10.682
			c15.787-7.152,31.489-14.466,45.249-25.256c0.526-0.412,1.156-1.001,1.722-0.986c1.117,0.031,2.603,0.084,3.23,0.772
			c0.635,0.696,0.745,2.257,0.476,3.279c-0.246,0.935-1.202,1.784-2.025,2.447c-2.632,2.121-5.22,4.334-8.05,6.164
			c-19.419,12.559-40.147,22.371-62.195,29.381c-0.943,0.3-1.847,0.722-3.002,1.18c0.686,0.541,0.979,0.823,1.317,1.032
			c20.413,12.654,42.479,16.457,65.843,11.413c25.173-5.434,47.997-16.521,69.526-30.424c0.908-0.586,1.74-1.287,2.63-1.902
			c1.664-1.149,2.364-2.652,2.638-4.728c0.475-3.597,1.135-7.236,2.287-10.667c4.661-13.882,14.764-20.185,29.318-18.46
			c1.939,0.23,3.359-0.196,4.658-1.655c2.967-3.333,6.229-6.419,9.026-9.885c16.567-20.531,29.983-43.047,41.612-66.668
			c0.442-0.898,0.636-1.919,1.134-3.471c-3.866-0.153-7.222-0.515-10.556-0.373c-9.092,0.388-17.439,3.279-25.435,7.586
			c-3.527,1.9-7.439,3.256-11.33,4.274c-7.824,2.046-15.135,0.375-20.309-5.858c-5.545-6.679-7.497-14.58-4.319-23.194
			c2.257-6.118,5.77-11.385,10.898-15.363c4.046-3.139,8.21-6.292,12.748-8.603c19.957-10.164,41.014-15.179,63.545-12.52
			c1.17,0.138,2.37,0.018,3.526,0.018c0.403-0.875,0.78-1.456,0.946-2.093c2.984-11.41,5.204-22.965,5.831-34.756
			c0.857-16.118,0.316-32.171-2.337-48.147c-2.688-16.185-6.107-32.139-12.221-47.443c-11.728-29.356-30.702-52.981-56.289-71.349
			c-9.695-6.96-20.365-11.799-32.414-12.977c-6.508-0.637-13.006-0.469-19.263,1.662c-4.812,1.638-5.162,2.961-3.924,7.835
			c3.027,11.921,5.894,23.884,8.645,35.871c0.397,1.73,0.063,3.764-0.429,5.519c-0.419,1.492-1.868,2.383-3.544,2.065
			c-1.686-0.32-2.38-1.553-2.469-3.248c-0.106-2.014-0.071-4.093-0.572-6.021c-2.993-11.515-5.913-23.056-9.257-34.472
			c-5.352-18.274-15.43-33.248-31.535-43.888c-19.079-12.606-39.103-14.032-59.8-4.793c-8.708,3.887-16.264,9.806-22.87,16.644
			c-14.281,14.783-25.38,31.622-31.639,51.386c-0.693,2.188-1.14,4.455-1.848,6.638c-0.745,2.296-2.357,3.319-4.211,2.9
			c-1.849-0.417-2.999-2.084-2.627-4.397c0.363-2.259,0.937-4.511,1.672-6.68c9.005-26.575,23.947-48.952,46.671-65.81
			c0.916-0.68,1.696-1.544,2.514-2.299c-30.996-38.609-81.84-32.488-108.893-6.566c0.239,0.447,0.447,0.949,0.75,1.384
			c5.69,8.175,10.181,17.019,12.918,26.54c3.171,11.033,5.563,22.291,8.241,33.463c0.213,0.889,0.32,2.016-0.048,2.781
			c-0.48,0.998-1.332,2.074-2.298,2.518c-1.359,0.624-2.755-0.091-3.411-1.421c-0.709-1.436-1.237-2.999-1.602-4.562
			c-1.691-7.243-3.111-14.555-4.974-21.752c-3.489-13.472-8.537-26.315-17.542-37.143c-10.824-13.016-25.011-19.661-41.832-20.107
			c-13.248-0.352-25.094,4.261-35.028,12.896c-20.693,17.989-34.554,40.317-41.21,67.01c-0.324,1.299-0.574,2.673-1.199,3.828
			c-0.89,1.646-2.473,2.004-4.21,1.371c-1.672-0.61-2.334-1.986-1.888-3.938c0.209-0.916,0.654-1.781,0.839-2.7
			c3.197-15.899,9.859-30.297,18.908-43.653c8.641-12.754,18.442-24.404,31.602-32.81
			C498.841,249.804,499.373,249.632,500.464,249.133z M708.115,909.488c1.443,0.539,2.425,0.966,3.443,1.278
			c12.68,3.887,24.045,10.419,35.14,17.486c1.247,0.794,2.602,1.62,3.452,2.768c0.6,0.81,0.794,2.291,0.516,3.291
			c-0.408,1.469-1.879,1.971-3.314,1.579c-1.143-0.312-2.246-0.915-3.252-1.566c-15.256-9.875-31.876-16.517-49.346-21.324
			c-13.319-3.664-26.593-3.965-40.164-1.551c-21.339,3.796-35.572,15.441-43.27,35.891c-4.902,13.021-6.123,26.206-5.595,39.853
			c0.137,3.535,1.376,5.623,4.331,7.469c26.991,16.857,56.361,22.976,87.53,17.587c46.227-7.993,79.918-33.562,100.69-75.677
			c10.496-21.281,13.745-44.014,11.719-67.551c-0.323-3.748-1.388-7.433,0.1-11.198c0.357-0.903,0.044-2.163-0.203-3.2
			c-3.136-13.148-5.957-26.387-9.592-39.397c-3.364-12.04-8.638-23.343-16.087-33.502c-1.19-1.622-2.405-3.395-4.016-4.507
			c-5.374-3.709-11.146-6.691-17.659-7.892c-10.54-1.944-21.003-1.443-31.393,1.104c-6.796,1.666-13.016,4.545-18.538,8.855
			c-1.204,0.939-2.228,2.108-3.59,3.416c1.762,0.916,2.949,1.521,4.125,2.146c9.662,5.134,17.426,12.294,23.079,21.689
			c2.89,4.803,4.896,9.967,5.755,15.505c0.305,1.965,0.285,4.054-0.023,6.018c-0.245,1.561-1.526,2.56-3.276,2.418
			c-1.551-0.126-2.418-1.119-2.725-2.584c-0.165-0.79-0.113-1.629-0.305-2.409c-0.836-3.395-1.245-6.999-2.682-10.125
			c-5.54-12.056-14.509-20.872-26.85-25.777c-11.295-4.488-22.321-3.514-32.46,3.551c-11.717,8.164-18.996,19.417-22.601,33.139
			c-0.125,0.474-0.016,1.01-0.016,1.72c1.37,0,2.577,0.151,3.734-0.026c5.478-0.836,10.97-1.624,16.407-2.683
			c11.611-2.261,23.845,7.373,24.671,17.594c0.293,3.628,0.464,7.34,0.044,10.939c-1.478,12.65-8.723,21.657-21.228,23.884
			c-3.71,0.661-7.503,0.846-11.255,1.283c-1.652,0.192-3.294,0.466-4.942,0.704c0.137,0.799,0.113,1.101,0.24,1.313
			c0.347,0.578,0.727,1.141,1.147,1.668c7.373,9.258,16.756,15.616,27.938,19.402c14.866,5.033,29.48-3.181,35.109-12.085
			c2.739-4.333,5.062-8.929,7.547-13.421c0.653-1.181,1.115-2.474,1.828-3.613c0.869-1.39,2.202-2.044,3.833-1.479
			c1.628,0.564,2.275,1.896,2.102,3.53c-0.112,1.062-0.382,2.143-0.787,3.132c-5.602,13.697-13.339,25.439-28.222,30.581
			C708.964,908.796,708.77,909.015,708.115,909.488z M933.58,702.241c1.795,0,3.511-0.015,5.226,0.003
			c3.769,0.041,7.559-0.135,11.302,0.2c7.091,0.634,13.241,3.682,18.679,8.172c2.587,2.137,3.097,4.223,1.704,5.875
			c-1.299,1.539-3.022,1.355-5.643-0.704c-4.12-3.236-8.656-5.584-13.896-6.249c-7.052-0.895-14.066-0.715-20.843,1.702
			c-5.858,2.089-11.683,4.279-17.47,6.556c-7.044,2.771-14.323,3.967-21.858,3.516c-11.634-0.697-20.346-6.062-25.532-16.6
			c-2.083-4.234-3.718-8.693-5.468-13.085c-0.95-2.385-1.635-4.875-2.575-7.264c-2.759-7.009-7.848-10.655-15.471-11.048
			c-7.88-0.406-13.693,2.757-17.394,9.569c-3.239,5.961-4.562,12.466-3.814,19.226c1.352,12.231,6.37,22.824,14.721,31.863
			c6.049,6.548,13.35,11.391,21.05,15.724c5.895,3.317,11.905,6.471,17.558,10.165c3.575,2.336,6.923,5.232,9.777,8.411
			c4.536,5.051,5.855,11.107,4.014,17.799c-1.882,6.843-4.653,13.271-8.52,19.214c-5.607,8.62-11.334,17.162-16.873,25.826
			c-6.769,10.587-11.124,21.922-10.323,34.794c0.979,15.751,11.041,25.695,26.784,26.366c7.189,0.306,10.801-1.985,12.457-8.912
			c1.282-5.365,2.053-10.901,2.506-16.405c1.086-13.195,4.824-25.468,11.83-36.717c2.891-4.642,6.542-8.528,10.934-11.861
			c2.445-1.856,4.535-1.957,7.086-0.764c5.85,2.736,12.052,3.953,18.479,4.151c0.811,0.025,1.626,0.068,2.428,0.185
			c3.01,0.438,4.309,1.934,4.047,4.964c-0.151,1.74-0.638,3.453-0.996,5.173c-0.716,3.44-1.592,6.855-2.146,10.321
			c-1.53,9.562-1.06,19.144-0.092,28.728c1.083,10.721,4.689,20.541,10.601,29.489c4.484,6.788,10.847,11.308,18.482,13.909
			c12.1,4.122,22.9-3.392,23.617-16.147c0.386-6.874-1.033-13.16-5.15-18.769c-1.36-1.853-2.608-3.791-3.871-5.713
			c-5.727-8.715-9.768-18.141-10.99-28.53c-0.597-5.074-0.528-10.263-0.325-15.383c0.152-3.836,1.478-5.095,4.636-5.626
			c7.792-1.31,14.83-4.052,20.143-10.247c0.97-1.131,2.449-1.652,3.596-0.595c0.87,0.801,1.658,2.247,1.596,3.356
			c-0.067,1.197-0.954,2.549-1.861,3.454c-1.519,1.516-3.284,2.809-5.043,4.058c-3.039,2.16-3.103,2.139-1.328,5.506
			c2.606,4.943,5.795,9.457,9.987,13.206c9.299,8.316,19.821,14.548,31.648,18.549c5.579,1.888,11.326,2.761,17.189,2.23
			c8.453-0.766,16.039-3.626,22.158-9.789c6.193-6.238,6.748-18.111-2.149-24.115c-2.867-1.934-6.148-3.411-9.433-4.525
			c-3.566-1.209-7.344-1.819-11.054-2.569c-12.922-2.612-24.41-7.879-33.469-17.77c-3.926-4.287-6.599-9.203-7.908-14.875
			c-1.289-5.588-1.506-11.251-1.249-16.945c0.346-7.672-0.713-15.111-3.496-22.288c-2.197-5.665-4.9-10.845-11.03-13.322
			c-1.886-0.762-2.435-2.512-1.713-3.982c0.837-1.705,2.405-2.371,4.071-1.765c2.002,0.729,3.878,1.846,5.732,2.926
			c1.113,0.648,2.08,1.546,3.135,2.35c4.988-4.32,5.308-9.61,4.379-15.139c-1.178-7.017-4.408-13.095-9.45-18.062
			c-15.146-14.923-33.573-20.706-54.497-18.816c-5.429,0.491-10.525,2.602-14.831,6.109
			C934.019,694.03,932.178,697.43,933.58,702.241z M429.336,892.619c0,1.409-0.041,2.315,0.006,3.217
			c0.401,7.698,0.836,15.395,1.211,23.095c0.059,1.206,0.031,2.464-0.25,3.628c-0.514,2.128-2.346,3.242-4.252,2.809
			c-1.941-0.441-2.838-2.084-2.487-4.393c0.219-1.446,0.541-2.924,0.442-4.362c-0.34-4.991-0.709-9.987-1.313-14.952
			c-1.419-11.667-2.517-23.401-4.619-34.948c-1.934-10.619-4.567-21.162-7.677-31.503c-6.606-21.97-15.408-43.033-27.622-62.569
			c-14.111-22.57-32.674-40.33-56.726-51.934c-22.463-10.837-46.158-15.72-71.215-14.222c-14.473,0.865-27.581,5.03-39.439,13.281
			c-7.157,4.98-13.145,11.099-18.501,18.862c1.289-0.369,1.918-0.512,2.52-0.728c5.928-2.126,12.063-3.09,18.331-2.93
			c17.281,0.442,33.755,4.5,49.403,11.734c23.336,10.789,41.476,27.707,56.242,48.469c7.785,10.947,14.225,22.712,20.226,34.689
			c18.243,36.411,36.449,72.842,54.39,109.402c6.931,14.124,14.731,27.701,23.123,40.98c7.803,12.348,17.62,22.49,30.497,29.665
			c10.235,5.703,20.758,11.082,28.893,20.598c1.351-1.978,2.552-3.572,3.581-5.271c6.845-11.308,9.342-23.799,10.036-36.803
			c0.815-15.252-3.029-29.506-9.244-43.218c-2.292-5.056-5.17-9.805-9.502-13.508c-1.77-1.513-1.95-3.239-0.818-4.59
			c1.141-1.363,2.96-1.649,4.759-0.433c1.326,0.896,2.646,1.977,3.57,3.262c2.759,3.834,5.351,7.789,7.943,11.74
			c0.797,1.215,1.388,2.565,2.116,3.934c4.152-1.079,6.37-3.825,7.663-7.398c3.291-9.092,2.582-18.086-0.952-26.944
			c-7.433-18.63-21.137-31.481-38.318-40.919c-7.589-4.169-16.022-5.656-24.643-5.944c-2.912-0.098-5.626,0.605-8.094,2.201
			c-1.744,1.128-2.643,2.599-2.296,4.769c0.533,3.338,1.154,6.679,1.381,10.042c0.175,2.6,1.36,3.796,3.766,4.43
			c6.215,1.638,11.846,4.622,17.157,8.15c1.988,1.321,3.711,3.124,5.303,4.929c1.159,1.315,1.274,2.99-0.128,4.396
			c-1.259,1.263-3.055,1.257-4.66-0.406c-3.975-4.118-9.092-6.277-14.147-8.539C433.317,893.638,431.47,893.273,429.336,892.619z
			 M291.49,435.885c-1.739,1.336-2.806,2.121-3.836,2.952c-10.053,8.115-21.436,13.035-34.343,14.268
			c-1.205,0.115-2.446,0.168-3.64,0.013c-2.159-0.28-3.466-1.561-3.59-3.256c-0.125-1.71,1.016-3.111,3.145-3.637
			c1.04-0.257,2.152-0.206,3.212-0.4c3.975-0.729,8.026-1.21,11.898-2.313c12.323-3.51,21.51-11.653,29.741-20.979
			c6.138-6.954,10.738-14.914,14.247-23.501c4.744-11.611,7.743-23.669,8.626-36.166c0.707-10.003,0.751-20.038-2.222-29.792
			c-3.823-12.542-10.44-23.192-21.59-30.498c-12.725-8.338-28.491-6.479-38.729,4.769c-3.329,3.657-5.954,8.032-8.48,12.326
			c-3.634,6.176-6.866,12.589-10.303,18.881c-4.934,9.032-11.473,16.705-19.633,22.986c-2.145,1.651-4.304,3.283-6.47,4.905
			c-4.582,3.433-6.14,8.145-5.46,13.612c1.435,11.531,9.667,18.869,21.347,19.504c9.123,0.496,17.236-2.391,24.193-7.856
			c16.496-12.958,27.258-29.453,29.582-50.766c0.058-0.536,0.095-1.084,0.245-1.597c0.416-1.423,1.298-2.381,2.864-2.435
			c1.562-0.054,2.755,0.809,3.006,2.22c0.348,1.959,0.603,4.06,0.267,5.99c-0.693,3.986-1.81,7.897-2.737,11.843
			c-0.235,0.998-0.411,2.01-0.699,3.435c4.227-1.536,7.23-3.893,9.821-6.914c1.591-1.855,3.144-2.089,4.563-0.977
			c1.384,1.085,1.723,2.916,0.583,4.747c-0.773,1.241-1.815,2.357-2.897,3.355c-3.726,3.435-8.025,5.957-12.776,7.715
			c-2.603,0.963-4.697,2.41-6.07,5.013c-1.318,2.499-3.03,4.806-4.701,7.101c-6.872,9.435-15.063,17.381-25.816,22.319
			c-7.533,3.459-15.354,5.191-23.674,3.555c-1.008-0.198-2.056-0.194-3.203-0.293c-0.148,0.778-0.315,1.29-0.334,1.808
			c-0.395,10.614-5.78,18.448-14.08,24.392c-8.674,6.212-18.229,7.891-27.936,2.84c-12.01-6.251-21.331-15.247-25.593-28.556
			c-0.678-2.117-1.852-3.439-3.752-4.466c-2.734-1.479-5.36-3.161-7.995-4.815c-1.142-0.717-2.26-1.505-3.272-2.393
			c-2.216-1.944-2.641-3.678-1.417-5.222c1.148-1.447,2.747-1.564,5.119-0.22c1.291,0.732,2.464,1.669,3.721,2.463
			c1.206,0.762,2.453,1.461,4.352,2.583c-0.265-2.278-0.499-3.719-0.587-5.17c-0.139-2.288-0.38-4.597-0.208-6.869
			c0.174-2.302,1.493-3.548,3.162-3.621c1.692-0.074,2.953,1.129,3.443,3.36c0.144,0.656,0.181,1.342,0.207,2.016
			c0.285,7.483,2.404,14.657,4.693,21.625c3.765,11.46,12.473,18.687,23.127,23.708c1.074,0.506,2.337,0.645,3.529,0.857
			c12.847,2.281,27.067-11.244,26.785-23.03c-0.069-2.897-0.585-4.954-3.161-6.829c-8.931-6.502-13.111-19.185-9.818-29.71
			c1.042-3.33,0.451-5.743-1.897-8.052c-8.162-8.028-17.115-14.967-27.586-19.733c-2.814-1.281-5.812-2.285-8.827-2.969
			c-11.92-2.703-22.441,0.387-31.786,8.049c-8.206,6.728-11.66,15.785-12.407,25.981c-1.026,14.007,0.034,27.886,4.168,41.368
			c10.114,32.976,32.081,52.433,66.374,57.507c10.749,1.591,20.749-0.427,29.513-7.231c1.282-0.996,2.608-1.936,3.932-2.877
			c0.661-0.469,1.329-0.951,2.054-1.301c1.602-0.773,3.166-0.831,4.375,0.723c1.086,1.396,0.762,2.818-0.216,4.105
			c-0.568,0.747-1.234,1.452-1.967,2.037c-7.604,6.076-15.708,11.081-25.747,11.915c-0.632,0.053-1.242,0.373-2.074,0.636
			c-0.275,5.205,0.95,9.756,4.675,13.403c10.065,9.855,21.944,14.934,36.118,12.341c26.826-4.907,45.471-19.799,54.365-45.985
			C293.684,452.826,293.6,444.816,291.49,435.885z M410.547,989.005c0.224-0.473,0.449-0.945,0.673-1.418
			c-0.693-0.421-1.471-0.748-2.068-1.278c-9.363-8.321-17.265-17.897-24.374-28.183c-20.013-28.958-38.99-58.58-56.89-88.886
			c-12.48-21.13-27.759-40.023-45.459-56.931c-15.673-14.971-33.775-25.672-55.415-29.587c-10.591-1.916-21.244-2.687-31.832-0.274
			c-3.909,0.891-7.636,2.635-11.386,4.138c-2.06,0.826-3.145,2.462-2.992,4.803c0.257,3.911,0.225,7.859,0.744,11.733
			c1.798,13.414,6.356,25.974,12.276,38.072c11.534,23.57,27.239,44.195,45.12,63.213c30.478,32.416,65.659,58.775,104.322,80.648
			c5.542,3.135,10.995,5.694,17.529,4.803c0.528-0.072,1.08,0.049,1.621,0.05c13.262,0.019,26.525,0.089,39.787,0.007
			C404.988,989.897,407.767,989.323,410.547,989.005z M855.552,669.26c2.778,3.961,5.469,7.19,7.449,10.807
			c1.667,3.046,2.394,6.592,3.744,9.83c1.972,4.729,3.824,9.549,6.285,14.023c3.029,5.505,8.005,8.654,14.243,9.725
			c5.402,0.928,10.872,0.993,16.069-0.585c7.224-2.193,14.26-5.002,21.376-7.55c1.858-0.665,1.724-2.234,1.603-3.723
			c-0.715-8.806,3.681-14.738,10.942-18.766c3.274-1.816,6.899-3.087,10.487-4.213c2.126-0.667,3.242-1.727,3.475-3.853
			c0.338-3.085,0.846-6.162,0.991-9.256c0.576-12.316-1.901-24.226-5.315-35.938c-5.138-17.625-16.171-30.637-31.991-39.702
			c-1.946-1.115-4.073-1.914-6.395-2.989c-7.198,15.223-14.624,29.766-23.603,43.462C875.939,644.22,866.785,657.761,855.552,669.26
			z M410.913,977.423c-0.666-1.124-1.338-2.244-1.997-3.372c-3.345-5.721-6.993-11.289-9.976-17.194
			c-13.051-25.84-25.902-51.782-38.84-77.68c-9.189-18.393-18.25-36.853-27.656-55.134c-6.758-13.134-14.516-25.67-24.273-36.871
			c-17.213-19.761-37.788-34.264-63.429-40.992c-10.804-2.835-21.723-4.398-32.915-3.764c-4.925,0.279-9.67,1.338-14.089,3.49
			c-5.766,2.808-10.521,6.694-12.171,13.293c-1.506,6.025-2.916,12.074-4.305,18.127c-0.161,0.7,0.084,1.493,0.147,2.338
			c0.664-0.112,1.094-0.092,1.437-0.255c13.393-6.366,27.441-6.539,41.723-4.401c20.479,3.065,38.534,11.628,54.325,24.805
			c21.176,17.671,38.36,38.83,52.925,62.172c13.32,21.348,26.432,42.83,40.008,64.014c8.025,12.522,16.673,24.653,25.244,36.815
			C400.933,968.295,405.516,973.217,410.913,977.423z M604.801,1000.001c-0.437,3.429-0.773,6.334-1.182,9.228
			c-0.689,4.885,0.198,9.131,4.518,12.184c1.65,1.167,3.035,2.718,4.716,3.832c9.528,6.314,19.616,11.531,30.753,14.335
			c24.212,6.094,48.657,7.387,73.148,2.082c24.55-5.317,44.758-17.773,60.119-37.908c14.331-18.784,24.007-39.747,29.98-62.507
			c0.92-3.505,1.694-7.049,2.535-10.575c-17.155,39.692-45.305,67.953-86.22,82.399
			C682.034,1027.593,642.563,1022.905,604.801,1000.001z M204.255,361.195c10.726-6.797,19.518-15.533,25.644-26.879
			c1.016-1.882,0.604-3.191-0.46-4.786c-4.854-7.273-10.701-13.62-17.821-18.675c-12.037-8.548-25.326-12.721-40.136-10.086
			c-15.149,2.695-25.096,12.631-28.176,27.636c-0.257,1.252-0.244,2.559-0.381,4.113c1.132-0.053,1.783-0.018,2.411-0.124
			c4.99-0.846,9.939-0.712,14.891,0.376c11.237,2.47,20.884,8.04,29.582,15.329C194.659,352.161,199.201,356.59,204.255,361.195z
			 M259.825,294.181c-2.82-4.732-5.199-8.874-8.935-11.893c-8.187-6.615-17.269-11.745-27.45-14.485
			c-19.707-5.304-37.43,2.553-46.889,20.461c-0.665,1.259-1.133,2.622-1.659,3.857c0.598,0.399,0.806,0.65,1.034,0.67
			c0.807,0.071,1.62,0.087,2.431,0.083c16.466-0.077,30.745,5.659,42.843,16.64c4.282,3.887,7.902,8.503,11.832,12.779
			c0.582,0.634,1.21,1.226,2.133,2.157C241.488,312.62,247.243,300.815,259.825,294.181z M355.196,1023.618
			c6.608,5.242,13.751,9.543,21.643,12.533c7.073,2.68,14.132,5.411,21.286,7.861c7.924,2.714,15.959,5.029,24.327,6.082
			c9.881,1.243,19.686,0.403,29.492-0.679c3.423-0.378,6.894-0.715,10.658-2.65c-1.997-1.529-3.437-2.944-5.14-3.878
			c-4.972-2.724-10.008-5.341-15.095-7.846c-8.848-4.356-17.741-8.62-26.646-12.857c-1.189-0.566-2.63-1.21-3.833-1.026
			c-3.855,0.591-7.639,1.629-11.477,2.354c-3.558,0.672-7.164,1.718-10.726,1.634
			C378.228,1024.88,366.782,1024.166,355.196,1023.618z M818.785,864.129c5.103-2.341,8.01-5.46,9.188-10.358
			c1.246-5.179,0.518-10.272-0.285-15.31c-2.647-16.618-7.479-32.637-13.271-48.433c-3.789-10.332-10.541-16.398-21.424-17.883
			c-1.473-0.201-2.933-0.508-4.409-0.677c-0.854-0.098-1.728-0.018-3.181-0.018c1.94,2.852,3.438,5.226,5.106,7.473
			c5.358,7.219,9.564,15.046,12.861,23.406c6.587,16.701,10.338,34.141,13.669,51.695
			C817.641,857.193,818.14,860.381,818.785,864.129z M413.047,995.408c-3.651,0.504-6.688,1.213-9.741,1.294
			c-12.543,0.333-25.091,0.514-37.639,0.654c-2.824,0.032-5.668-0.578-8.474-0.407c-1.6,0.097-3.62,0.752-4.621,1.888
			c-3.582,4.062-5.529,9.128-8.383,14.233c1.794,0.56,3.011,1.112,4.282,1.307c6.394,0.981,12.777,2.163,19.211,2.715
			c7.654,0.657,15.357,0.954,23.04,0.989c3.758,0.018,7.474-1.086,10.661-3.334C407.912,1010.143,411.398,1003.685,413.047,995.408z
			 M468.982,1043.065c8.508-5.82,6.316-8.855,1.126-12.87c-4.47-3.458-9.277-6.494-14.034-9.565
			c-10.655-6.879-21.374-13.658-32.056-20.494c-1.184-0.758-2.297-1.625-3.647-2.586c-1.161,3.187-2.001,5.895-3.129,8.478
			c-1.113,2.548-2.516,4.969-3.853,7.564c0.859,0.47,1.421,0.818,2.015,1.097c12.34,5.783,24.683,11.561,37.028,17.333
			C458.453,1034.836,464.148,1038.145,468.982,1043.065z M577.335,712.254c-11.014-0.784-22.667-1.612-34.726-2.47
			c-2.809,7.804-3.891,15.839-2.199,24.288C553.133,726.555,565.584,719.198,577.335,712.254z"/>
		<path d="M291.413,194.197c3.009,3.693,5.649,6.921,8.276,10.159c12.017,14.815,24.021,29.641,36.058,44.44
			c1.444,1.775,2.996,3.473,4.604,5.102c4.395,4.457,4.618,11.067,0.44,15.727c-4.757,5.307-10.914,7.478-17.82,7.303
			c-8.308-0.211-15.984-2.714-22.653-7.792c-4.624-3.521-7.548-8.065-7.619-14.106c-0.114-9.616,6.706-15.845,16.231-14.543
			c3.191,0.436,6.298,1.509,9.428,2.35c1.152,0.309,2.259,0.788,4.155,1.463c-0.907-1.435-1.356-2.32-1.962-3.08
			c-16.544-20.724-33.141-41.403-50.938-61.084c-1.715-1.896-3.384-3.911-4.657-6.113c-2.678-4.63-1.046-8.255,4.192-8.657
			c7.799-0.598,15.034-3.223,22.448-5.279c6.446-1.787,11.88-5.134,16.442-9.963c2.044-2.163,4.071-4.344,6.055-6.561
			c3.288-3.674,7.052-6.719,11.556-8.765c1.087-0.494,2.384-1.142,3.44-0.945c1.616,0.301,3.494,0.914,4.554,2.052
			c1.375,1.477,0.423,3.343-0.781,4.755c-2.839,3.328-3.664,7.448-4.77,11.498c-1.314,4.816-2.526,9.702-4.374,14.322
			c-3.173,7.933-8.709,13.916-16.367,17.868c-3.725,1.923-7.457,3.847-11.072,5.965
			C294.605,191.297,293.205,192.744,291.413,194.197z"/>
		<path d="M407.873,161.338c2.047-0.16,3.161-0.126,4.22-0.349c7.07-1.489,13.934-3.741,20.047-7.568
			c9.389-5.878,18.599-12.059,27.669-18.42c1.97-1.381,3.685-3.864,4.395-6.184c4.582-14.961,8.862-30.014,13.205-45.047
			c0.301-1.043,0.304-2.173,0.53-3.916c-1.873-0.078-3.41-0.21-4.945-0.194c-8.244,0.086-16.822-6.937-18.176-15.005
			c-0.589-3.506,0.053-6.852,1.988-9.851c2.336-3.618,5.68-5.611,9.975-4.496c4.067,1.056,8.228,2.268,11.892,4.253
			c7.629,4.135,11.262,12.352,9.136,20.787c-2.508,9.952-5.063,19.948-8.524,29.592c-5.979,16.657-9.283,33.944-13.21,51.095
			c-0.836,3.65-1.374,7.368-2.013,11.062c-0.757,4.371-1.598,5.024-6.015,5.07c-1.24,0.013-2.539,0.395-3.703,0.87
			c-14.792,6.042-29.546,12.179-44.354,18.182c-4.864,1.972-9.569,4.019-13.386,7.846c-2.424,2.431-4.956,2.403-6.979,0.6
			c-1.875-1.671-1.73-3.741-1.069-5.864c1.647-5.292,3.279-10.59,5.003-15.858c5.118-15.644,10.29-31.27,15.404-46.916
			c0.657-2.01,1.265-4.063,1.598-6.144c0.592-3.696-0.086-4.211-3.624-5.618c-4.054-1.613-8.167-3.319-11.802-5.681
			c-4.381-2.848-6.303-7.398-5.99-12.665c0.327-5.518,4.23-9.199,9.706-8.779c8.901,0.682,15.756,5.002,20.249,12.738
			c2.25,3.873,2.16,8.134,1.005,12.359c-3.481,12.734-6.999,25.458-10.511,38.184C409.126,157.115,408.613,158.797,407.873,161.338z
			"/>
		<path d="M574.324,108.856c-1.649-1.393-2.943-2.567-4.319-3.633c-4.285-3.318-7.42-7.518-9.329-12.549
			c-1.725-4.547-3.135-9.211-4.753-13.8c-1.167-3.312-2.421-6.594-3.683-9.871c-1.357-3.522,0.523-6.205,4.199-5.453
			c2.166,0.443,4.53,1.421,6.113,2.9c3.536,3.303,7.107,6.751,9.811,10.721c4.354,6.393,8.898,12.585,14.089,18.31
			c0.635,0.701,1.234,1.44,1.801,2.197c2.618,3.497,2.638,5.489-0.5,8.502c-4.193,4.027-8.808,7.625-12.89,11.755
			c-7.692,7.785-15.132,15.819-22.604,23.673c0.32,0.04,1.289,0.21,2.266,0.274c3.573,0.232,6.95,1.144,9.991,3.046
			c8.405,5.257,8.669,16.017,0.503,21.589c-8.941,6.101-25.448,5.169-33.938-6.213c-1.696-2.273-2.084-4.844-0.761-7.259
			c1.278-2.334,2.836-4.647,4.739-6.484c12.552-12.122,25.231-24.113,37.864-36.151
			C573.306,110.044,573.636,109.622,574.324,108.856z"/>
		<path d="M749.501,451.418c1.358,0,2.796-0.05,4.229,0.008c9.375,0.377,18.542,1.945,27.447,4.931
			c1.274,0.427,2.564,0.936,3.686,1.656c1.816,1.167,2.325,3.01,1.436,4.526c-1.014,1.729-2.593,1.918-4.228,1.2
			c-5.522-2.426-11.397-3.322-17.29-4.192c-13.997-2.068-27.409-0.527-40.32,5.654c-13.284,6.36-24.846,14.779-33.944,26.425
			c-4.628,5.924-8.074,12.472-10.09,19.748c-0.396,1.428-0.841,2.871-1.498,4.191c-0.946,1.902-2.664,2.604-4.344,2.028
			c-1.623-0.556-2.692-2.292-2.093-4.29c1.279-4.266,2.814-8.456,4.288-12.662c0.438-1.25,1.023-2.45,1.572-3.747
			c-2.441-1.084-4.714-1.937-6.841-3.064c-15.429-8.177-23.908-21.554-27.787-38.078c-3.496-14.893-3.925-30.017-1.813-45.156
			c3.642-26.105,11.28-50.912,24.603-73.798c6.156-10.574,13.491-20.274,22.137-28.939c5.277-5.288,10.967-10.075,17.998-12.953
			c12.756-5.222,24.678-3.287,35.74,4.501c10.548,7.427,17.304,17.778,21.655,29.719c5.417,14.867,6.975,30.276,5.329,45.959
			c-1.043,9.943-2.27,19.885-3.932,29.741c-2.494,14.789-7.969,28.619-14.591,42.015c-0.538,1.088-1.044,2.193-1.518,3.31
			C749.246,450.357,749.39,450.658,749.501,451.418z M761.328,378.018c2.344-15.751,1.217-29.214-2.401-41.6
			c-3.494-11.958-9.304-22.527-19.365-30.253c-9.983-7.666-20.86-9.422-32.314-3.637c-3.575,1.806-6.876,4.343-9.912,6.992
			c-7.171,6.257-13.129,13.624-18.602,21.396c-12.905,18.322-20.505,38.899-25.991,60.424c-4.875,19.127-6.199,38.388-3.035,57.924
			c1.427,8.813,4.329,17.005,9.427,24.389c4.245,6.149,9.656,10.938,16.357,14.227c2.939,1.442,6.199,1.883,8.805-0.213
			c2.226-1.791,3.778-4.42,5.763-6.844c-1.336-0.785-2.216-1.411-3.181-1.85c-3.829-1.738-6.863-4.428-8.885-8.047
			c-1.902-3.403-3.761-6.909-5.013-10.583c-4.102-12.032-4.267-24.432-2.715-36.91c0.316-2.541,0.891-5.057,1.469-7.556
			c0.977-4.223,3.51-6.917,7.887-7.706c5.714-1.031,11.427-2.071,17.135-3.135c0.827-0.154,1.626-0.461,2.914-0.836
			c-1.577-1.813-2.902-3.154-4.016-4.653c-3.304-4.448-6.594-8.909-9.753-13.46c-2.183-3.144-2.342-6.629-0.69-10.041
			c1.59-3.281,3.201-6.594,5.21-9.623c5.555-8.377,11.588-16.206,20.809-21.17c12.519-6.739,25.711-5.226,35.777,4.765
			c5.885,5.842,10.016,12.729,12.279,20.72C759.974,373.163,760.648,375.591,761.328,378.018z"/>
		<path d="M555.541,429.827c0.492,0.539,0.636,0.84,0.858,0.918c9.09,3.195,15.554,9.545,20.93,17.258
			c2.01,2.883,4.17,5.665,6.339,8.433c1.155,1.474,2.342,2.779,4.471,3.191c2.19,0.423,2.959,2.297,2.394,4.374
			c-0.572,2.1-2.62,3.445-4.687,2.687c-1.47-0.539-2.985-1.436-4.023-2.586c-3.256-3.61-6.236-7.467-9.434-11.131
			c-3.193-3.658-6.234-7.523-9.854-10.716c-5.898-5.202-12.928-6.42-20.526-4.319c-4.178,1.155-7.642,3.408-10.406,6.713
			c-6.523,7.8-9.199,16.79-7.732,26.837c1.022,6.994,5.039,12.275,10.987,15.818c7.708,4.592,15.993,6.982,25.182,5.843
			c4.672-0.579,9.454-0.4,14.181-0.31c1.547,0.029,3.238,0.601,4.56,1.416c0.853,0.526,1.755,2.094,1.551,2.928
			c-0.261,1.062-1.491,2.074-2.547,2.688c-0.703,0.409-1.832,0.074-2.77,0.093c-4.451,0.087-8.935-0.128-13.348,0.331
			c-11.663,1.213-22.407-1.282-31.984-7.92c-10.532-7.3-14.605-17.694-13.255-30.325c0.11-1.028,0.209-2.056,0.376-3.7
			c-13.427,4.511-24.512,0.59-34.86-8.693c-0.104,1.812-0.143,3.063-0.255,4.306c-0.145,1.607-0.162,3.258-0.576,4.799
			c-0.45,1.677-1.619,2.908-3.573,2.591c-1.874-0.304-2.695-1.694-2.831-3.47c-0.103-1.346-0.114-2.706-0.063-4.056
			c0.666-17.641-6.234-32.178-18.626-44.229c-7.796-7.582-17.184-12.652-27.784-15.265c-2.055-0.507-4.258-0.48-6.398-0.558
			c-2.287-0.083-3.69-0.957-3.929-2.681c-0.236-1.701,0.865-3.409,3.039-3.625c2.65-0.263,5.44-0.299,8.033,0.234
			c11.077,2.279,20.879,7.288,29.575,14.493c0.725,0.601,1.461,1.19,2.204,1.769c0.085,0.066,0.249,0.032,0.86,0.09
			c0-1.712-0.047-3.406,0.007-5.096c0.991-31.104,7.371-60.903,22.015-88.582c6.107-11.544,14.006-21.854,23.376-30.994
			c5.111-4.985,10.822-8.979,17.894-10.687c10.21-2.467,19.295-0.038,27.402,6.407c5.81,4.619,10.258,10.367,13.593,16.98
			c5.987,11.869,9.418,24.541,10.563,37.687c1.857,21.305,0.092,42.456-5.085,63.193c-1.721,6.892-4.752,13.496-7.578,20.062
			C561.359,418.715,558.352,424.168,555.541,429.827z M514.836,384.68c-2.028-1.779-3.369-2.871-4.612-4.065
			c-2.631-2.526-5.303-5.019-7.79-7.681c-3.566-3.817-4.603-8.354-3.809-13.53c1.754-11.439,6.069-21.856,12.228-31.552
			c3.004-4.73,6.732-8.834,11.616-11.721c9.004-5.32,18.068-5.925,27.249-0.34c4.48,2.725,8.16,6.235,11.043,10.582
			c3.463,5.221,6.094,10.836,7.793,16.88c0.241,0.859,0.607,1.682,0.915,2.522c0.261-0.05,0.522-0.1,0.783-0.15
			c-0.452-6.328-0.605-12.694-1.42-18.974c-1.469-11.334-4.493-22.267-9.862-32.444c-3.144-5.959-7.349-11.036-12.934-14.86
			c-5.473-3.747-11.407-5.276-18.089-3.968c-6.262,1.226-11.232,4.541-15.669,8.834c-9.913,9.591-17.913,20.616-24.165,32.892
			c-7.613,14.948-12.403,30.85-15.459,47.282c-2.772,14.905-5.186,29.851-3.155,45.117c0.451,3.391,1.003,6.592,3.038,9.509
			c1.613,2.312,2.72,4.977,4.063,7.479c2.487,4.636,4.81,9.371,7.515,13.876c4.04,6.731,10.203,10.68,17.758,12.506
			c4.487,1.084,8.875,0.533,13.113-1.183c0.889-0.36,1.631-1.084,2.714-1.827c-0.95-0.515-1.394-0.843-1.892-1.013
			c-7.257-2.469-11.957-7.62-15.223-14.339c-3.055-6.284-4.817-12.956-5.486-19.847c-0.507-5.221-0.705-10.527-0.398-15.757
			c0.318-5.416,3.515-8.784,8.919-10.209C507.112,387.781,510.453,386.277,514.836,384.68z"/>
		<path d="M406.444,513.187c0.965,21.203,7.024,39.432,21.235,54.389c4.857,5.112,10.595,9.101,17.958,9.168
			c3.989,0.036,8.039-0.732,11.969-1.569c4.879-1.04,9.59-3.118,14.499-3.714c16.334-1.983,30.02,3.62,41.102,15.651
			c2.41,2.616,4.039,5.782,4.711,9.316c0.72,3.792,0.184,7.388-2.858,10.051c-3.086,2.702-6.812,2.775-10.29,1.102
			c-2.626-1.263-5.121-3.045-7.248-5.048c-4.169-3.928-7.176-8.782-9.829-13.838c-0.628-1.198-1.175-2.438-1.805-3.635
			c-3.922-7.449-2.584-7.112-11.786-6.609c-3.186,0.174-6.334,1.277-9.47,2.072c-3.665,0.929-7.259,2.169-10.952,2.95
			c-9.135,1.932-17.428-0.222-24.956-5.61c-5.347-3.827-9.735-8.604-13.421-13.995c-10.778-15.763-16.182-33.251-15.918-52.329
			c0.138-9.983,2.379-19.596,7.455-28.351c6.293-10.854,16.412-15.581,28.801-13.61c7.066,1.124,13.453,3.967,19.571,7.538
			c4.555,2.659,9.073,5.39,13.717,7.887c3.605,1.938,7.482,3.208,11.671,2.872c5.328-0.427,9.646-2.576,12.064-7.614
			c1-2.083,1.656-4.177,0.947-6.632c-0.676-2.342,0.156-3.788,1.827-4.285c1.621-0.482,3.344,0.363,4.21,2.336
			c1.254,2.858,1.004,5.83,0.138,8.733c-2.431,8.153-9.726,13.872-18.209,14.499c-5.139,0.38-10.001-0.592-14.538-2.911
			c-4.09-2.091-8.008-4.516-12.052-6.7c-4.16-2.246-8.26-4.67-12.609-6.484c-4.891-2.04-10.067-2.945-15.472-2.156
			c-4.995,0.729-8.833,3.172-11.86,7.082c-3.995,5.161-6.074,11.163-7.231,17.457C407.038,505.436,406.818,509.774,406.444,513.187z
			"/>
		<path d="M415.541,506.863c-0.11-5.489,0.613-10.773,3.484-15.608c1.993-3.358,4.273-4.306,7.755-2.501
			c1.988,1.031,3.826,2.545,5.384,4.173c3.696,3.862,6.044,8.606,8.046,13.505c3.702,9.062,6.021,18.492,7.021,28.218
			c0.602,5.851-0.009,11.635-2.257,17.119c-3.587,8.752-10.072,9.536-15.78,1.927c-1.291-1.721-2.461-3.571-3.42-5.494
			C419.284,535.191,415.826,521.414,415.541,506.863z"/>
		<path d="M682.736,597.574c-0.74,1.81-1.148,3.263-1.882,4.526c-3.319,5.715-6.517,11.518-10.165,17.02
			c-4.025,6.07-8.492,11.846-12.774,17.745c-0.475,0.655-0.964,1.306-1.505,1.906c-2.098,2.322-3.969,2.827-5.56,1.537
			c-1.512-1.226-1.57-2.973-0.101-5.481c0.544-0.929,1.198-1.796,1.836-2.667c3.354-4.571,6.9-9.014,10.037-13.729
			c4.554-6.844,8.818-13.881,13.199-20.841c0.358-0.569,0.611-1.209,0.998-1.755c0.969-1.364,2.396-2.092,3.828-1.174
			C681.613,595.279,682.1,596.641,682.736,597.574z"/>
		<path d="M774.089,653.175c-2.232-0.129-3.656-1.923-3.047-4.018c0.4-1.376,1.276-2.655,2.111-3.857
			c5.543-7.978,11.215-15.868,16.667-23.906c2.188-3.225,3.975-6.727,5.854-10.153c1.324-2.414,2.614-3.293,4.309-2.65
			c1.852,0.702,2.545,2.613,1.684,5.134c-0.477,1.395-1.12,2.755-1.853,4.037c-6.506,11.376-13.37,22.517-21.699,32.685
			C776.987,651.824,775.894,653.199,774.089,653.175z"/>
		<path d="M418.156,290.078c-0.082,2.85-2.743,5.585-5.359,5.507c-2.558-0.076-4.702-2.451-4.617-5.113
			c0.114-3.565,2-5.685,4.961-5.579C416.019,284.996,418.236,287.289,418.156,290.078z"/>
		<path d="M718.76,506.845c-0.108,2.723-3.035,5.658-5.459,5.475c-2.074-0.156-4.008-3.011-3.932-5.805
			c0.078-2.878,2.5-5.322,5.077-5.124C716.829,501.574,718.867,504.15,718.76,506.845z"/>
		<path d="M747.316,519.976c-2.617,0.069-4.736-1.862-4.862-4.431c-0.131-2.679,2.033-5.274,4.484-5.378
			c2.423-0.103,4.899,2.414,4.914,4.993C751.865,517.676,749.76,519.911,747.316,519.976z"/>
		<path d="M767.425,485.538c2.574,0.044,4.453,1.805,4.459,4.176c0.006,2.444-2.133,4.39-4.791,4.358
			c-2.805-0.034-5.444-2.416-5.432-4.904C761.672,486.888,763.912,485.478,767.425,485.538z"/>
		<path d="M871.164,390.741c-0.117,2.386-2.224,4.308-4.573,4.171c-2.427-0.141-4.442-2.482-4.292-4.985
			c0.146-2.422,2.243-4.376,4.527-4.217C869.149,385.871,871.281,388.345,871.164,390.741z"/>
		<path d="M733.016,481.305c0.094-2.646,1.805-4.223,4.426-4.081c2.691,0.146,4.543,1.913,4.428,4.227
			c-0.114,2.311-2.602,4.41-5.047,4.258C734.62,485.572,732.933,483.621,733.016,481.305z"/>
		<path d="M841.677,356.997c2.592,0.004,4.67,2.096,4.61,4.642c-0.049,2.083-1.873,3.911-3.894,3.902
			c-2.29-0.01-4.783-2.85-4.653-5.299C837.843,358.316,839.448,356.994,841.677,356.997z"/>
		<path d="M445.897,443.076c-2.327,0.014-3.902-1.47-3.935-3.708c-0.038-2.575,1.805-4.573,4.183-4.536
			c2.272,0.035,4.039,1.919,3.984,4.249C450.074,441.407,448.321,443.062,445.897,443.076z"/>
		<path d="M896.718,404.249c-0.012,2.283-1.518,3.883-3.723,3.958c-2.504,0.085-4.457-1.566-4.39-3.713
			c0.075-2.388,2.153-4.661,4.251-4.649C894.941,399.857,896.731,401.897,896.718,404.249z"/>
		<path d="M840.222,392.998c2.14,0.069,4.385,2.453,4.294,4.56c-0.086,1.997-2.003,3.837-3.972,3.813
			c-2.163-0.027-4.272-2.311-4.233-4.585C836.346,394.715,838.186,392.933,840.222,392.998z"/>
		<path d="M866.291,365.706c0.115-2.435,1.827-4.304,3.918-4.276c2.211,0.029,4.253,2.366,4.054,4.638
			c-0.191,2.183-2.226,3.871-4.467,3.706C867.602,369.613,866.184,367.968,866.291,365.706z"/>
		<path d="M418.601,310.487c-0.016-2.491,1.851-4.5,4.149-4.465c2.093,0.032,3.769,1.694,3.859,3.828
			c0.097,2.307-1.886,4.379-4.243,4.434C420.233,314.332,418.615,312.701,418.601,310.487z"/>
		<path d="M430.051,413.087c2.602,0.015,4.384,1.525,4.329,3.666c-0.051,1.986-2.204,3.906-4.368,3.895
			c-2.097-0.011-4.067-2.043-4.043-4.172C425.992,414.388,427.576,413.073,430.051,413.087z"/>
		<path d="M405.123,315.067c-0.033,2.151-1.761,4.146-3.586,4.139c-1.848-0.006-3.831-2.328-3.825-4.48
			c0.006-2.061,1.855-3.879,3.86-3.794C403.529,311.015,405.157,312.91,405.123,315.067z"/>
		<path d="M873.885,427.174c-0.084,2.169-1.497,3.589-3.53,3.548c-2.219-0.045-4.106-1.949-4.094-4.131
			c0.012-2.11,1.768-3.828,3.869-3.784C872.301,422.852,873.978,424.802,873.885,427.174z"/>
		<path d="M721.004,648.239c-0.092,2.269-2.118,4.232-4.197,4.066c-1.93-0.154-3.331-1.825-3.284-3.919
			c0.054-2.417,1.868-4.177,4.124-4.001C719.611,644.538,721.086,646.231,721.004,648.239z"/>
		<path d="M733.882,654.692c0.062-2.062,1.33-3.454,3.103-3.406c2.075,0.056,3.905,2.442,3.741,4.877
			c-0.142,2.099-1.641,3.625-3.535,3.597C735.073,659.729,733.789,657.762,733.882,654.692z"/>
		<path d="M441.769,277.249c0,2.02-1.642,3.754-3.491,3.691c-1.808-0.062-3.291-1.817-3.304-3.908
			c-0.012-2.026,1.237-3.55,2.995-3.653C439.962,273.261,441.77,275.103,441.769,277.249z"/>
		<path d="M422.51,439.813c-2.34-0.029-3.894-1.313-3.873-3.201c0.021-1.837,1.816-3.456,3.796-3.423
			c1.914,0.032,3.671,1.778,3.637,3.614C426.037,438.612,424.586,439.839,422.51,439.813z"/>
		<path d="M539.634,672.257c-2.052,0.075-3.872-1.401-3.939-3.197c-0.066-1.781,1.44-3.193,3.384-3.172
			c2.09,0.023,3.778,1.562,3.728,3.398C542.762,670.944,541.431,672.191,539.634,672.257z"/>
		<path d="M428.679,628.702c-0.04-1.933,1.311-3.479,3.063-3.503c1.7-0.023,3.181,1.477,3.311,3.356
			c0.144,2.076-1.365,3.769-3.288,3.688C430.041,632.171,428.72,630.655,428.679,628.702z"/>
		<path d="M446.131,625.695c-1.797,0.029-3.514-1.781-3.529-3.719c-0.013-1.658,1.394-3.085,3.063-3.107
			c1.927-0.025,3.543,1.682,3.477,3.672C449.082,624.336,447.81,625.669,446.131,625.695z"/>
		<path d="M688.348,584.161c-1.886,0.076-3.512-1.605-3.524-3.643c-0.011-1.811,1.189-3.19,2.859-3.285
			c1.825-0.104,3.429,1.575,3.499,3.663C691.241,582.699,690.031,584.094,688.348,584.161z"/>
		<path d="M721.222,676.627c-1.672-0.026-2.938-1.491-2.834-3.281c0.112-1.931,1.556-3.494,3.253-3.522
			c1.692-0.027,3.075,1.333,3.125,3.074C724.821,674.797,723.054,676.656,721.222,676.627z"/>
		<path d="M450.805,415.814c1.801-0.051,3.444,1.492,3.48,3.266c0.037,1.838-1.48,3.435-3.274,3.447
			c-1.801,0.012-3.194-1.517-3.176-3.488C447.85,417.259,449.138,415.86,450.805,415.814z"/>
		<path d="M558.181,689.427c-1.703,0.087-3.133-1.295-3.113-3.008c0.019-1.6,1.404-3.13,3.004-3.318
			c1.646-0.194,3.209,1.13,3.318,2.811C561.505,687.664,559.979,689.336,558.181,689.427z"/>
		<path d="M546.929,689.658c0.112,1.613-1.207,3.079-2.92,3.247c-1.862,0.182-3.52-1.238-3.536-3.027
			c-0.015-1.675,1.319-2.967,3.112-3.016C545.367,686.814,546.815,688.025,546.929,689.658z"/>
		<path d="M418.644,407.537c0.096,1.518-1.04,2.88-2.561,3.07c-1.733,0.216-3.179-0.98-3.277-2.711
			c-0.09-1.592,0.97-2.889,2.521-3.085C416.991,404.603,418.539,405.875,418.644,407.537z"/>
		<path d="M445.67,646.484c-1.659-0.046-2.953-1.534-2.808-3.231c0.134-1.571,1.384-2.68,2.965-2.627
			c1.687,0.056,3.007,1.539,2.843,3.193C448.524,645.299,447.144,646.525,445.67,646.484z"/>
		<path d="M946.068,768.096c-3.224-0.118-5.303-1.701-5.791-4.073c-0.237-1.15-0.333-2.506,0.048-3.575
			c2.074-5.807,6.023-10.164,11.302-13.182c2.777-1.588,5.375,0.04,5.085,3.228c-0.547,6.019-2.491,11.608-7.12,15.811
			C948.473,767.322,946.805,767.736,946.068,768.096z"/>
		<path d="M979.745,765.185c-0.297,2.665-0.46,5.355-0.946,7.985c-0.261,1.412-0.909,2.826-1.678,4.054
			c-1.365,2.181-3.463,3.082-5.461,2.531c-2.342-0.645-3.779-2.365-3.844-4.655c-0.075-2.65,0.007-5.462,0.822-7.94
			c1.115-3.39,2.89-6.581,4.574-9.756c0.721-1.36,2.096-2.142,3.77-1.618c1.79,0.56,2.47,2.007,2.548,3.729
			c0.085,1.879,0.019,3.765,0.019,5.648C979.614,765.17,979.68,765.178,979.745,765.185z"/>
		<path d="M991.127,767.043c0.093-1.748-0.109-3.586,0.381-5.214c0.327-1.086,1.533-2.444,2.543-2.636
			c1.015-0.192,2.928,0.617,3.322,1.494c2.419,5.383,5.431,10.629,5.719,16.717c0.187,3.951-1.48,6.638-4.025,7.127
			c-2.354,0.452-4.707-1.347-5.777-5.167c-1.119-3.996-1.722-8.136-2.55-12.214C990.868,767.115,990.998,767.079,991.127,767.043z"
			/>
	</g>
</g>
</svg>
